<svg xmlns="http://www.w3.org/2000/svg" width="256" height="256" viewBox="-32 -4 170 170">
<path style="fill:#01d1b3; stroke:none;" d="M110 120C102.694 109.629 91.9646 100.965 83 92C80.2389 89.2389 73.0556 84.2911 73.0556 80C73.0556 73.43 88.5525 62.4795 92.9992 58C95.5104 55.4703 100.17 52.0394 98.2485 48C92.0571 34.9864 73.2043 22.2043 63 12C60.0147 9.01466 54.6338 1.20679 50 1.20679C43.1023 1.20679 31.6769 17.3231 27 22C21.7819 27.2181 14.6128 32.5407 10.9383 39C4.37382 50.5396 5.35525 70.9345 3.4213 84C2.37768 91.0505 -1.72632 103.189 0.618056 110C3.07656 117.143 12.7665 123.767 18 129L41 152C43.8059 154.8 47.4621 159.977 52 158.574C58.5667 156.544 65.2992 150.134 71 146.333C83.996 137.669 97.6161 129.519 110 120z"/>
</svg>