<svg xmlns="http://www.w3.org/2000/svg" xmlns:xlink="http://www.w3.org/1999/xlink" id="svg" version="1.1" width="256" height="256" viewBox="-25, 0, 400,400"><g id="svgg"><path id="path0" d="M166.800 8.353 C 166.800 8.768,167.115 9.207,167.500 9.329 C 168.185 9.546,170.404 10.804,170.800 11.200 C 171.196 11.596,173.415 12.854,174.100 13.071 C 174.485 13.193,174.800 13.452,174.800 13.647 C 174.800 13.841,175.078 14.000,175.417 14.000 C 175.756 14.000,176.420 14.360,176.892 14.800 C 177.364 15.240,177.987 15.600,178.275 15.600 C 178.564 15.600,178.800 15.780,178.800 16.000 C 178.800 16.220,179.078 16.400,179.417 16.400 C 179.756 16.400,180.420 16.760,180.892 17.200 C 181.364 17.640,181.987 18.000,182.275 18.000 C 182.564 18.000,182.800 18.180,182.800 18.400 C 182.800 18.620,183.160 18.800,183.600 18.800 C 184.040 18.800,184.400 18.980,184.400 19.200 C 184.400 19.420,184.636 19.600,184.925 19.600 C 185.213 19.600,185.836 19.960,186.308 20.400 C 186.780 20.840,187.444 21.200,187.783 21.200 C 188.122 21.200,188.400 21.359,188.400 21.553 C 188.400 21.748,188.715 22.007,189.100 22.129 C 189.785 22.346,192.004 23.604,192.400 24.000 C 192.796 24.396,195.015 25.654,195.700 25.871 C 196.085 25.993,196.400 26.252,196.400 26.447 C 196.400 26.641,196.678 26.800,197.017 26.800 C 197.356 26.800,198.020 27.160,198.492 27.600 C 198.964 28.040,199.587 28.400,199.875 28.400 C 200.164 28.400,200.400 28.580,200.400 28.800 C 200.400 29.020,200.760 29.200,201.200 29.200 C 201.640 29.200,202.000 29.380,202.000 29.600 C 202.000 29.820,202.236 30.000,202.525 30.000 C 202.813 30.000,203.436 30.360,203.908 30.800 C 204.380 31.240,205.044 31.600,205.383 31.600 C 205.722 31.600,206.000 31.780,206.000 32.000 C 206.000 32.220,206.278 32.400,206.617 32.400 C 206.956 32.400,207.620 32.760,208.092 33.200 C 208.564 33.640,209.187 34.000,209.475 34.000 C 209.764 34.000,210.000 34.180,210.000 34.400 C 210.000 34.620,210.278 34.800,210.617 34.800 C 210.956 34.800,211.620 35.160,212.092 35.600 C 212.564 36.040,213.187 36.400,213.475 36.400 C 213.764 36.400,214.000 36.580,214.000 36.800 C 214.000 37.020,214.360 37.200,214.800 37.200 C 215.240 37.200,215.600 37.380,215.600 37.600 C 215.600 37.820,215.836 38.000,216.125 38.000 C 216.413 38.000,217.036 38.360,217.508 38.800 C 217.980 39.240,218.629 39.600,218.950 39.600 C 219.271 39.600,219.593 39.735,219.667 39.900 C 219.834 40.276,221.964 41.575,222.900 41.871 C 223.285 41.993,223.600 42.252,223.600 42.447 C 223.600 42.641,223.878 42.800,224.217 42.800 C 224.556 42.800,225.220 43.160,225.692 43.600 C 226.164 44.040,226.787 44.400,227.075 44.400 C 227.364 44.400,227.600 44.580,227.600 44.800 C 227.600 45.020,227.960 45.200,228.400 45.200 C 228.840 45.200,229.200 45.380,229.200 45.600 C 229.200 45.820,229.436 46.000,229.725 46.000 C 230.013 46.000,230.636 46.360,231.108 46.800 C 231.580 47.240,232.244 47.600,232.583 47.600 C 232.922 47.600,233.200 47.780,233.200 48.000 C 233.200 48.220,233.436 48.400,233.725 48.400 C 234.013 48.400,234.636 48.760,235.108 49.200 C 235.580 49.640,236.244 50.000,236.583 50.000 C 236.922 50.000,237.200 50.180,237.200 50.400 C 237.200 50.620,237.478 50.800,237.817 50.800 C 238.156 50.800,238.820 51.160,239.292 51.600 C 239.764 52.040,240.387 52.400,240.675 52.400 C 240.964 52.400,241.200 52.580,241.200 52.800 C 241.200 53.020,241.478 53.200,241.817 53.200 C 242.156 53.200,242.820 53.560,243.292 54.000 C 243.764 54.440,244.387 54.800,244.675 54.800 C 244.964 54.800,245.200 54.980,245.200 55.200 C 245.200 55.420,245.560 55.600,246.000 55.600 C 246.440 55.600,246.800 55.780,246.800 56.000 C 246.800 56.220,247.036 56.400,247.325 56.400 C 247.613 56.400,248.236 56.760,248.708 57.200 C 249.180 57.640,249.844 58.000,250.183 58.000 C 250.522 58.000,250.800 58.159,250.800 58.353 C 250.800 58.548,251.115 58.807,251.500 58.929 C 252.185 59.146,254.404 60.404,254.800 60.800 C 255.196 61.196,257.415 62.454,258.100 62.671 C 258.485 62.793,258.800 63.052,258.800 63.247 C 258.800 63.441,259.078 63.600,259.417 63.600 C 259.756 63.600,260.420 63.960,260.892 64.400 C 261.364 64.840,261.987 65.200,262.275 65.200 C 262.564 65.200,262.800 65.380,262.800 65.600 C 262.800 65.820,263.160 66.000,263.600 66.000 C 264.040 66.000,264.400 66.180,264.400 66.400 C 264.400 66.620,264.636 66.800,264.925 66.800 C 265.213 66.800,265.836 67.160,266.308 67.600 C 266.780 68.040,267.444 68.400,267.783 68.400 C 268.122 68.400,268.400 68.559,268.400 68.753 C 268.400 68.948,268.715 69.207,269.100 69.329 C 269.785 69.546,272.004 70.804,272.400 71.200 C 272.796 71.596,275.015 72.854,275.700 73.071 C 276.085 73.193,276.400 73.452,276.400 73.647 C 276.400 73.841,276.678 74.000,277.017 74.000 C 277.356 74.000,278.020 74.360,278.492 74.800 C 278.964 75.240,279.587 75.600,279.875 75.600 C 280.164 75.600,280.400 75.780,280.400 76.000 C 280.400 76.220,280.760 76.400,281.200 76.400 C 281.640 76.400,282.000 76.580,282.000 76.800 C 282.000 77.020,282.236 77.200,282.525 77.200 C 282.813 77.200,283.436 77.560,283.908 78.000 C 284.380 78.440,285.029 78.800,285.350 78.800 C 285.671 78.800,285.993 78.935,286.067 79.100 C 286.234 79.476,288.364 80.775,289.300 81.071 C 289.685 81.193,290.000 81.452,290.000 81.647 C 290.000 81.841,290.278 82.000,290.617 82.000 C 290.956 82.000,291.620 82.360,292.092 82.800 C 292.564 83.240,293.187 83.600,293.475 83.600 C 293.764 83.600,294.000 83.780,294.000 84.000 C 294.000 84.220,294.360 84.400,294.800 84.400 C 295.240 84.400,295.600 84.580,295.600 84.800 C 295.600 85.020,295.836 85.200,296.125 85.200 C 296.413 85.200,297.036 85.560,297.508 86.000 C 297.980 86.440,298.644 86.800,298.983 86.800 C 299.322 86.800,299.600 86.980,299.600 87.200 C 299.600 87.420,299.878 87.600,300.217 87.600 C 300.556 87.600,301.220 87.960,301.692 88.400 C 302.164 88.840,302.787 89.200,303.075 89.200 C 303.364 89.200,303.600 89.380,303.600 89.600 C 303.600 89.820,303.878 90.000,304.217 90.000 C 304.556 90.000,305.220 90.360,305.692 90.800 C 306.164 91.240,306.787 91.600,307.075 91.600 C 307.364 91.600,307.600 91.780,307.600 92.000 C 307.600 92.220,307.960 92.400,308.400 92.400 C 308.840 92.400,309.200 92.580,309.200 92.800 C 309.200 93.020,309.436 93.200,309.725 93.200 C 310.013 93.200,310.636 93.560,311.108 94.000 C 311.580 94.440,312.244 94.800,312.583 94.800 C 312.922 94.800,313.200 94.980,313.200 95.200 C 313.200 95.420,313.478 95.600,313.817 95.600 C 314.156 95.600,314.820 95.960,315.292 96.400 C 315.764 96.840,316.387 97.200,316.675 97.200 C 316.964 97.200,317.200 97.380,317.200 97.600 C 317.200 97.820,317.478 98.000,317.817 98.000 C 318.156 98.000,318.820 98.360,319.292 98.800 C 319.764 99.240,320.387 99.600,320.675 99.600 C 320.964 99.600,321.200 99.780,321.200 100.000 C 321.200 100.220,321.560 100.400,322.000 100.400 C 322.440 100.400,322.800 100.580,322.800 100.800 C 322.800 101.020,323.036 101.200,323.325 101.200 C 323.613 101.200,324.236 101.560,324.708 102.000 C 325.180 102.440,325.844 102.800,326.183 102.800 C 326.522 102.800,326.800 102.980,326.800 103.200 C 326.800 103.420,327.036 103.600,327.325 103.600 C 327.613 103.600,328.236 103.960,328.708 104.400 C 329.180 104.840,329.844 105.200,330.183 105.200 C 330.522 105.200,330.800 105.359,330.800 105.553 C 330.800 105.748,331.115 106.007,331.500 106.129 C 332.201 106.351,334.424 107.617,334.800 108.008 C 335.269 108.496,337.290 109.191,337.630 108.981 C 337.849 108.846,338.000 100.054,338.000 87.410 L 338.000 66.067 336.800 65.536 C 336.140 65.244,335.600 64.869,335.600 64.702 C 335.600 64.536,335.322 64.400,334.983 64.400 C 334.644 64.400,333.980 64.040,333.508 63.600 C 333.036 63.160,332.413 62.800,332.125 62.800 C 331.836 62.800,331.600 62.620,331.600 62.400 C 331.600 62.180,331.240 62.000,330.800 62.000 C 330.360 62.000,330.000 61.820,330.000 61.600 C 330.000 61.380,329.764 61.200,329.475 61.200 C 329.187 61.200,328.564 60.840,328.092 60.400 C 327.620 59.960,326.956 59.600,326.617 59.600 C 326.278 59.600,326.000 59.420,326.000 59.200 C 326.000 58.980,325.722 58.800,325.383 58.800 C 325.044 58.800,324.380 58.440,323.908 58.000 C 323.436 57.560,322.813 57.200,322.525 57.200 C 322.236 57.200,322.000 57.020,322.000 56.800 C 322.000 56.580,321.640 56.400,321.200 56.400 C 320.760 56.400,320.400 56.220,320.400 56.000 C 320.400 55.780,320.164 55.600,319.875 55.600 C 319.587 55.600,318.964 55.240,318.492 54.800 C 318.020 54.360,317.356 54.000,317.017 54.000 C 316.678 54.000,316.400 53.820,316.400 53.600 C 316.400 53.380,316.122 53.200,315.783 53.200 C 315.444 53.200,314.780 52.840,314.308 52.400 C 313.836 51.960,313.213 51.600,312.925 51.600 C 312.636 51.600,312.400 51.420,312.400 51.200 C 312.400 50.980,312.040 50.800,311.600 50.800 C 311.160 50.800,310.800 50.620,310.800 50.400 C 310.800 50.180,310.564 50.000,310.275 50.000 C 309.987 50.000,309.364 49.640,308.892 49.200 C 308.420 48.760,307.756 48.400,307.417 48.400 C 307.078 48.400,306.800 48.220,306.800 48.000 C 306.800 47.780,306.564 47.600,306.275 47.600 C 305.987 47.600,305.364 47.240,304.892 46.800 C 304.420 46.360,303.771 46.000,303.450 46.000 C 303.129 46.000,302.807 45.865,302.733 45.700 C 302.566 45.324,300.436 44.025,299.500 43.729 C 299.115 43.607,298.800 43.348,298.800 43.153 C 298.800 42.959,298.522 42.800,298.183 42.800 C 297.844 42.800,297.180 42.440,296.708 42.000 C 296.236 41.560,295.613 41.200,295.325 41.200 C 295.036 41.200,294.800 41.020,294.800 40.800 C 294.800 40.580,294.440 40.400,294.000 40.400 C 293.560 40.400,293.200 40.220,293.200 40.000 C 293.200 39.780,292.964 39.600,292.675 39.600 C 292.387 39.600,291.764 39.240,291.292 38.800 C 290.820 38.360,290.156 38.000,289.817 38.000 C 289.478 38.000,289.200 37.841,289.200 37.647 C 289.200 37.452,288.885 37.193,288.500 37.071 C 287.815 36.854,285.596 35.596,285.200 35.200 C 284.804 34.804,282.585 33.546,281.900 33.329 C 281.515 33.207,281.200 32.948,281.200 32.753 C 281.200 32.559,280.840 32.400,280.400 32.400 C 279.960 32.400,279.600 32.220,279.600 32.000 C 279.600 31.780,279.364 31.600,279.075 31.600 C 278.787 31.600,278.164 31.240,277.692 30.800 C 277.220 30.360,276.571 30.000,276.250 30.000 C 275.929 30.000,275.607 29.865,275.533 29.700 C 275.366 29.324,273.236 28.025,272.300 27.729 C 271.915 27.607,271.600 27.348,271.600 27.153 C 271.600 26.959,271.322 26.800,270.983 26.800 C 270.644 26.800,269.980 26.440,269.508 26.000 C 269.036 25.560,268.413 25.200,268.125 25.200 C 267.836 25.200,267.600 25.020,267.600 24.800 C 267.600 24.580,267.240 24.400,266.800 24.400 C 266.360 24.400,266.000 24.220,266.000 24.000 C 266.000 23.780,265.764 23.600,265.475 23.600 C 265.187 23.600,264.564 23.240,264.092 22.800 C 263.620 22.360,262.956 22.000,262.617 22.000 C 262.278 22.000,262.000 21.820,262.000 21.600 C 262.000 21.380,261.722 21.200,261.383 21.200 C 261.044 21.200,260.380 20.840,259.908 20.400 C 259.436 19.960,258.813 19.600,258.525 19.600 C 258.236 19.600,258.000 19.420,258.000 19.200 C 258.000 18.980,257.640 18.800,257.200 18.800 C 256.760 18.800,256.400 18.620,256.400 18.400 C 256.400 18.180,256.164 18.000,255.875 18.000 C 255.587 18.000,254.964 17.640,254.492 17.200 C 254.020 16.760,253.356 16.400,253.017 16.400 C 252.678 16.400,252.400 16.220,252.400 16.000 C 252.400 15.780,252.122 15.600,251.783 15.600 C 251.444 15.600,250.780 15.240,250.308 14.800 C 249.836 14.360,249.213 14.000,248.925 14.000 C 248.636 14.000,248.400 13.820,248.400 13.600 C 248.400 13.380,248.122 13.200,247.783 13.200 C 247.444 13.200,246.780 12.840,246.308 12.400 C 245.836 11.960,245.213 11.600,244.925 11.600 C 244.636 11.600,244.400 11.420,244.400 11.200 C 244.400 10.980,244.040 10.800,243.600 10.800 C 243.160 10.800,242.800 10.620,242.800 10.400 C 242.800 10.180,242.564 10.000,242.275 10.000 C 241.987 10.000,241.364 9.640,240.892 9.200 C 240.420 8.760,239.756 8.400,239.417 8.400 C 239.078 8.400,238.800 8.220,238.800 8.000 C 238.800 7.736,226.533 7.600,202.800 7.600 C 167.810 7.600,166.800 7.621,166.800 8.353 M298.100 264.144 C 297.605 264.389,297.200 264.727,297.200 264.895 C 297.200 265.063,296.840 265.200,296.400 265.200 C 295.960 265.200,295.600 265.359,295.600 265.553 C 295.600 265.748,295.285 266.007,294.900 266.129 C 293.964 266.425,291.834 267.724,291.667 268.100 C 291.593 268.265,291.188 268.400,290.767 268.400 C 290.345 268.400,290.000 268.559,290.000 268.753 C 290.000 268.948,289.685 269.207,289.300 269.329 C 288.364 269.625,286.234 270.924,286.067 271.300 C 285.993 271.465,285.588 271.600,285.167 271.600 C 284.745 271.600,284.400 271.780,284.400 272.000 C 284.400 272.220,284.164 272.400,283.875 272.400 C 283.587 272.400,282.964 272.760,282.492 273.200 C 282.020 273.640,281.356 274.000,281.017 274.000 C 280.678 274.000,280.400 274.180,280.400 274.400 C 280.400 274.620,280.122 274.800,279.783 274.800 C 279.444 274.800,278.780 275.160,278.308 275.600 C 277.836 276.040,277.213 276.400,276.925 276.400 C 276.636 276.400,276.400 276.580,276.400 276.800 C 276.400 277.020,276.055 277.200,275.633 277.200 C 275.212 277.200,274.807 277.335,274.733 277.500 C 274.566 277.876,272.436 279.175,271.500 279.471 C 271.115 279.593,270.800 279.852,270.800 280.047 C 270.800 280.241,270.440 280.400,270.000 280.400 C 269.560 280.400,269.200 280.580,269.200 280.800 C 269.200 281.020,268.964 281.200,268.675 281.200 C 268.387 281.200,267.764 281.560,267.292 282.000 C 266.820 282.440,266.156 282.800,265.817 282.800 C 265.478 282.800,265.200 282.980,265.200 283.200 C 265.200 283.420,264.922 283.600,264.583 283.600 C 264.244 283.600,263.580 283.960,263.108 284.400 C 262.636 284.840,262.013 285.200,261.725 285.200 C 261.436 285.200,261.200 285.380,261.200 285.600 C 261.200 285.820,260.855 286.000,260.433 286.000 C 260.012 286.000,259.607 286.135,259.533 286.300 C 259.366 286.676,257.236 287.975,256.300 288.271 C 255.915 288.393,255.600 288.652,255.600 288.847 C 255.600 289.041,255.240 289.200,254.800 289.200 C 254.360 289.200,254.000 289.359,254.000 289.553 C 254.000 289.748,253.685 290.007,253.300 290.129 C 252.364 290.425,250.234 291.724,250.067 292.100 C 249.993 292.265,249.671 292.400,249.350 292.400 C 249.029 292.400,248.380 292.760,247.908 293.200 C 247.436 293.640,246.813 294.000,246.525 294.000 C 246.236 294.000,246.000 294.180,246.000 294.400 C 246.000 294.620,245.655 294.800,245.233 294.800 C 244.812 294.800,244.407 294.935,244.333 295.100 C 244.166 295.476,242.036 296.775,241.100 297.071 C 240.715 297.193,240.400 297.452,240.400 297.647 C 240.400 297.841,240.040 298.000,239.600 298.000 C 239.160 298.000,238.800 298.180,238.800 298.400 C 238.800 298.620,238.564 298.800,238.275 298.800 C 237.987 298.800,237.364 299.160,236.892 299.600 C 236.420 300.040,235.756 300.400,235.417 300.400 C 235.078 300.400,234.800 300.580,234.800 300.800 C 234.800 301.020,234.522 301.200,234.183 301.200 C 233.844 301.200,233.180 301.560,232.708 302.000 C 232.236 302.440,231.613 302.800,231.325 302.800 C 231.036 302.800,230.800 302.980,230.800 303.200 C 230.800 303.420,230.440 303.600,230.000 303.600 C 229.560 303.600,229.200 303.759,229.200 303.953 C 229.200 304.148,228.885 304.407,228.500 304.529 C 227.564 304.825,225.434 306.124,225.267 306.500 C 225.193 306.665,224.788 306.800,224.367 306.800 C 223.945 306.800,223.600 306.980,223.600 307.200 C 223.600 307.420,223.364 307.600,223.075 307.600 C 222.787 307.600,222.164 307.960,221.692 308.400 C 221.220 308.840,220.556 309.200,220.217 309.200 C 219.878 309.200,219.600 309.380,219.600 309.600 C 219.600 309.820,219.240 310.000,218.800 310.000 C 218.360 310.000,218.000 310.180,218.000 310.400 C 218.000 310.620,217.764 310.800,217.475 310.800 C 217.187 310.800,216.564 311.160,216.092 311.600 C 215.620 312.040,214.956 312.400,214.617 312.400 C 214.278 312.400,214.000 312.580,214.000 312.800 C 214.000 313.020,213.722 313.200,213.383 313.200 C 213.044 313.200,212.380 313.560,211.908 314.000 C 211.436 314.440,210.813 314.800,210.525 314.800 C 210.236 314.800,210.000 314.980,210.000 315.200 C 210.000 315.420,209.640 315.600,209.200 315.600 C 208.760 315.600,208.400 315.759,208.400 315.953 C 208.400 316.148,208.085 316.407,207.700 316.529 C 206.868 316.793,204.833 318.008,204.112 318.671 C 203.377 319.349,203.453 321.200,204.217 321.200 C 204.556 321.200,205.220 321.560,205.692 322.000 C 206.164 322.440,206.787 322.800,207.075 322.800 C 207.364 322.800,207.600 322.980,207.600 323.200 C 207.600 323.420,207.945 323.600,208.367 323.600 C 208.788 323.600,209.193 323.735,209.267 323.900 C 209.434 324.276,211.564 325.575,212.500 325.871 C 212.885 325.993,213.200 326.252,213.200 326.447 C 213.200 326.641,213.478 326.800,213.817 326.800 C 214.156 326.800,214.820 327.160,215.292 327.600 C 215.764 328.040,216.387 328.400,216.675 328.400 C 216.964 328.400,217.200 328.580,217.200 328.800 C 217.200 329.020,217.560 329.200,218.000 329.200 C 218.440 329.200,218.800 329.359,218.800 329.553 C 218.800 329.748,219.115 330.007,219.500 330.129 C 220.436 330.425,222.566 331.724,222.733 332.100 C 222.807 332.265,223.212 332.400,223.633 332.400 C 224.055 332.400,224.400 332.580,224.400 332.800 C 224.400 333.020,224.636 333.200,224.925 333.200 C 225.213 333.200,225.836 333.560,226.308 334.000 C 226.780 334.440,227.444 334.800,227.783 334.800 C 228.122 334.800,228.400 334.980,228.400 335.200 C 228.400 335.420,228.678 335.600,229.017 335.600 C 229.356 335.600,230.020 335.960,230.492 336.400 C 230.964 336.840,231.587 337.200,231.875 337.200 C 232.164 337.200,232.400 337.380,232.400 337.600 C 232.400 337.820,232.760 338.000,233.200 338.000 C 233.640 338.000,234.000 338.159,234.000 338.353 C 234.000 338.548,234.315 338.810,234.700 338.936 C 235.085 339.062,236.190 339.634,237.155 340.207 C 238.394 340.943,239.035 341.125,239.335 340.825 C 239.569 340.591,240.084 340.400,240.480 340.400 C 240.876 340.400,241.200 340.220,241.200 340.000 C 241.200 339.780,241.436 339.600,241.725 339.600 C 242.013 339.600,242.636 339.240,243.108 338.800 C 243.580 338.360,244.244 338.000,244.583 338.000 C 244.922 338.000,245.200 337.820,245.200 337.600 C 245.200 337.380,245.436 337.200,245.725 337.200 C 246.013 337.200,246.636 336.840,247.108 336.400 C 247.580 335.960,248.244 335.600,248.583 335.600 C 248.922 335.600,249.200 335.420,249.200 335.200 C 249.200 334.980,249.478 334.800,249.817 334.800 C 250.156 334.800,250.820 334.440,251.292 334.000 C 251.764 333.560,252.387 333.200,252.675 333.200 C 252.964 333.200,253.200 333.020,253.200 332.800 C 253.200 332.580,253.560 332.400,254.000 332.400 C 254.440 332.400,254.800 332.220,254.800 332.000 C 254.800 331.780,255.036 331.600,255.325 331.600 C 255.613 331.600,256.236 331.240,256.708 330.800 C 257.180 330.360,257.829 330.000,258.150 330.000 C 258.471 330.000,258.793 329.865,258.867 329.700 C 259.034 329.324,261.164 328.025,262.100 327.729 C 262.485 327.607,262.800 327.348,262.800 327.153 C 262.800 326.959,263.078 326.800,263.417 326.800 C 263.756 326.800,264.420 326.440,264.892 326.000 C 265.364 325.560,265.987 325.200,266.275 325.200 C 266.564 325.200,266.800 325.020,266.800 324.800 C 266.800 324.580,267.160 324.400,267.600 324.400 C 268.040 324.400,268.400 324.220,268.400 324.000 C 268.400 323.780,268.636 323.600,268.925 323.600 C 269.213 323.600,269.836 323.240,270.308 322.800 C 270.780 322.360,271.429 322.000,271.750 322.000 C 272.071 322.000,272.393 321.865,272.467 321.700 C 272.634 321.324,274.764 320.025,275.700 319.729 C 276.085 319.607,276.400 319.348,276.400 319.153 C 276.400 318.959,276.678 318.800,277.017 318.800 C 277.356 318.800,278.020 318.440,278.492 318.000 C 278.964 317.560,279.587 317.200,279.875 317.200 C 280.164 317.200,280.400 317.020,280.400 316.800 C 280.400 316.580,280.760 316.400,281.200 316.400 C 281.640 316.400,282.000 316.220,282.000 316.000 C 282.000 315.780,282.236 315.600,282.525 315.600 C 282.813 315.600,283.436 315.240,283.908 314.800 C 284.380 314.360,285.044 314.000,285.383 314.000 C 285.722 314.000,286.000 313.841,286.000 313.647 C 286.000 313.452,286.315 313.193,286.700 313.071 C 287.385 312.854,289.604 311.596,290.000 311.200 C 290.396 310.804,292.615 309.546,293.300 309.329 C 293.685 309.207,294.000 308.948,294.000 308.753 C 294.000 308.559,294.278 308.400,294.617 308.400 C 294.956 308.400,295.620 308.040,296.092 307.600 C 296.564 307.160,297.187 306.800,297.475 306.800 C 297.764 306.800,298.000 306.620,298.000 306.400 C 298.000 306.180,298.278 306.000,298.617 306.000 C 298.956 306.000,299.620 305.640,300.092 305.200 C 300.564 304.760,301.187 304.400,301.475 304.400 C 301.764 304.400,302.000 304.220,302.000 304.000 C 302.000 303.780,302.360 303.600,302.800 303.600 C 303.240 303.600,303.600 303.420,303.600 303.200 C 303.600 302.980,303.836 302.800,304.125 302.800 C 304.413 302.800,305.036 302.440,305.508 302.000 C 305.980 301.560,306.644 301.200,306.983 301.200 C 307.322 301.200,307.600 301.020,307.600 300.800 C 307.600 300.580,307.836 300.400,308.125 300.400 C 308.413 300.400,309.036 300.040,309.508 299.600 C 309.980 299.160,310.644 298.800,310.983 298.800 C 311.322 298.800,311.600 298.620,311.600 298.400 C 311.600 298.180,311.878 298.000,312.217 298.000 C 312.556 298.000,313.220 297.640,313.692 297.200 C 314.164 296.760,314.787 296.400,315.075 296.400 C 315.364 296.400,315.600 296.220,315.600 296.000 C 315.600 295.780,315.960 295.600,316.400 295.600 C 316.840 295.600,317.200 295.420,317.200 295.200 C 317.200 294.980,317.436 294.800,317.725 294.800 C 318.013 294.800,318.636 294.440,319.108 294.000 C 319.580 293.560,320.229 293.200,320.550 293.200 C 320.871 293.200,321.193 293.065,321.267 292.900 C 321.434 292.524,323.564 291.225,324.500 290.929 C 324.885 290.807,325.200 290.548,325.200 290.353 C 325.200 290.159,325.478 290.000,325.817 290.000 C 326.156 290.000,326.820 289.640,327.292 289.200 C 327.764 288.760,328.387 288.400,328.675 288.400 C 328.964 288.400,329.200 288.220,329.200 288.000 C 329.200 287.780,329.560 287.600,330.000 287.600 C 330.440 287.600,330.800 287.420,330.800 287.200 C 330.800 286.980,331.025 286.800,331.300 286.800 C 331.980 286.799,334.000 285.023,334.000 284.425 C 334.000 283.742,332.973 282.800,332.229 282.800 C 331.883 282.800,331.600 282.620,331.600 282.400 C 331.600 282.180,331.364 282.000,331.075 282.000 C 330.787 282.000,330.164 281.640,329.692 281.200 C 329.220 280.760,328.556 280.400,328.217 280.400 C 327.878 280.400,327.600 280.241,327.600 280.047 C 327.600 279.852,327.285 279.593,326.900 279.471 C 325.964 279.175,323.834 277.876,323.667 277.500 C 323.593 277.335,323.271 277.200,322.950 277.200 C 322.629 277.200,321.980 276.840,321.508 276.400 C 321.036 275.960,320.413 275.600,320.125 275.600 C 319.836 275.600,319.600 275.420,319.600 275.200 C 319.600 274.980,319.322 274.800,318.983 274.800 C 318.644 274.800,317.980 274.440,317.508 274.000 C 317.036 273.560,316.413 273.200,316.125 273.200 C 315.836 273.200,315.600 273.020,315.600 272.800 C 315.600 272.580,315.240 272.400,314.800 272.400 C 314.360 272.400,314.000 272.220,314.000 272.000 C 314.000 271.780,313.764 271.600,313.475 271.600 C 313.187 271.600,312.564 271.240,312.092 270.800 C 311.620 270.360,310.956 270.000,310.617 270.000 C 310.278 270.000,310.000 269.820,310.000 269.600 C 310.000 269.380,309.722 269.200,309.383 269.200 C 309.044 269.200,308.380 268.840,307.908 268.400 C 307.436 267.960,306.813 267.600,306.525 267.600 C 306.236 267.600,306.000 267.420,306.000 267.200 C 306.000 266.980,305.722 266.800,305.383 266.800 C 305.044 266.800,304.380 266.440,303.908 266.000 C 303.436 265.560,302.813 265.200,302.525 265.200 C 302.236 265.200,302.000 265.020,302.000 264.800 C 302.000 264.580,301.640 264.400,301.200 264.400 C 300.760 264.400,300.400 264.220,300.400 264.000 C 300.400 263.494,299.270 263.564,298.100 264.144 " stroke="none" fill="#3464b4" fill-rule="evenodd"/><path id="path1" d="M151.030 8.424 C 150.607 8.851,150.022 9.200,149.730 9.200 C 149.439 9.200,149.200 9.380,149.200 9.600 C 149.200 9.820,148.840 10.000,148.400 10.000 C 147.960 10.000,147.600 10.180,147.600 10.400 C 147.600 10.620,147.364 10.800,147.075 10.800 C 146.787 10.800,146.164 11.160,145.692 11.600 C 145.220 12.040,144.556 12.400,144.217 12.400 C 143.878 12.400,143.600 12.580,143.600 12.800 C 143.600 13.020,143.364 13.200,143.075 13.200 C 142.787 13.200,142.164 13.560,141.692 14.000 C 141.220 14.440,140.556 14.800,140.217 14.800 C 139.878 14.800,139.600 14.980,139.600 15.200 C 139.600 15.420,139.364 15.600,139.075 15.600 C 138.787 15.600,138.164 15.960,137.692 16.400 C 137.220 16.840,136.556 17.200,136.217 17.200 C 135.878 17.200,135.600 17.380,135.600 17.600 C 135.600 17.820,135.364 18.000,135.075 18.000 C 134.787 18.000,134.164 18.360,133.692 18.800 C 133.220 19.240,132.556 19.600,132.217 19.600 C 131.878 19.600,131.600 19.780,131.600 20.000 C 131.600 20.220,131.364 20.400,131.075 20.400 C 130.787 20.400,130.164 20.760,129.692 21.200 C 129.220 21.640,128.556 22.000,128.217 22.000 C 127.878 22.000,127.600 22.180,127.600 22.400 C 127.600 22.620,127.364 22.800,127.075 22.800 C 126.787 22.800,126.164 23.160,125.692 23.600 C 125.220 24.040,124.556 24.400,124.217 24.400 C 123.878 24.400,123.600 24.580,123.600 24.800 C 123.600 25.020,123.364 25.200,123.075 25.200 C 122.787 25.200,122.164 25.560,121.692 26.000 C 121.220 26.440,120.556 26.800,120.217 26.800 C 119.878 26.800,119.600 26.980,119.600 27.200 C 119.600 27.420,119.364 27.600,119.075 27.600 C 118.787 27.600,118.164 27.960,117.692 28.400 C 117.220 28.840,116.556 29.200,116.217 29.200 C 115.878 29.200,115.600 29.380,115.600 29.600 C 115.600 29.820,115.364 30.000,115.075 30.000 C 114.787 30.000,114.164 30.360,113.692 30.800 C 113.220 31.240,112.556 31.600,112.217 31.600 C 111.878 31.600,111.600 31.780,111.600 32.000 C 111.600 32.220,111.364 32.400,111.075 32.400 C 110.787 32.400,110.164 32.760,109.692 33.200 C 109.220 33.640,108.556 34.000,108.217 34.000 C 107.878 34.000,107.600 34.180,107.600 34.400 C 107.600 34.620,107.364 34.800,107.075 34.800 C 106.787 34.800,106.164 35.160,105.692 35.600 C 105.220 36.040,104.638 36.400,104.400 36.400 C 104.162 36.400,103.580 36.760,103.108 37.200 C 102.636 37.640,102.013 38.000,101.725 38.000 C 101.436 38.000,101.200 38.180,101.200 38.400 C 101.200 38.620,100.922 38.800,100.583 38.800 C 100.244 38.800,99.580 39.160,99.108 39.600 C 98.636 40.040,98.013 40.400,97.725 40.400 C 97.436 40.400,97.200 40.580,97.200 40.800 C 97.200 41.020,96.922 41.200,96.583 41.200 C 96.244 41.200,95.580 41.560,95.108 42.000 C 94.636 42.440,94.013 42.800,93.725 42.800 C 93.436 42.800,93.200 42.980,93.200 43.200 C 93.200 43.420,92.880 43.600,92.488 43.600 C 92.097 43.600,91.517 43.960,91.200 44.400 C 90.883 44.840,90.303 45.200,89.912 45.200 C 89.520 45.200,89.200 45.380,89.200 45.600 C 89.200 45.820,88.880 46.000,88.488 46.000 C 88.097 46.000,87.517 46.360,87.200 46.800 C 86.883 47.240,86.303 47.600,85.912 47.600 C 85.520 47.600,85.200 47.780,85.200 48.000 C 85.200 48.220,84.880 48.400,84.488 48.400 C 84.097 48.400,83.517 48.760,83.200 49.200 C 82.883 49.640,82.303 50.000,81.912 50.000 C 81.520 50.000,81.200 50.180,81.200 50.400 C 81.200 50.620,80.880 50.800,80.488 50.800 C 80.097 50.800,79.517 51.160,79.200 51.600 C 78.883 52.040,78.303 52.400,77.912 52.400 C 77.520 52.400,77.200 52.580,77.200 52.800 C 77.200 53.020,76.880 53.200,76.488 53.200 C 76.097 53.200,75.517 53.560,75.200 54.000 C 74.883 54.440,74.303 54.800,73.912 54.800 C 73.520 54.800,73.200 54.980,73.200 55.200 C 73.200 55.420,72.880 55.600,72.488 55.600 C 72.097 55.600,71.517 55.960,71.200 56.400 C 70.883 56.840,70.303 57.200,69.912 57.200 C 69.520 57.200,69.200 57.380,69.200 57.600 C 69.200 57.820,68.880 58.000,68.488 58.000 C 68.097 58.000,67.517 58.360,67.200 58.800 C 66.883 59.240,66.303 59.600,65.912 59.600 C 65.520 59.600,65.200 59.780,65.200 60.000 C 65.200 60.220,64.880 60.400,64.488 60.400 C 64.097 60.400,63.517 60.760,63.200 61.200 C 62.883 61.640,62.303 62.000,61.912 62.000 C 61.520 62.000,61.200 62.180,61.200 62.400 C 61.200 62.620,60.880 62.800,60.488 62.800 C 60.097 62.800,59.517 63.160,59.200 63.600 C 58.883 64.040,58.303 64.400,57.912 64.400 C 57.520 64.400,57.200 64.580,57.200 64.800 C 57.200 65.020,56.880 65.200,56.488 65.200 C 56.097 65.200,55.517 65.560,55.200 66.000 C 54.883 66.440,54.303 66.800,53.912 66.800 C 53.520 66.800,53.200 66.980,53.200 67.200 C 53.200 67.420,52.880 67.600,52.488 67.600 C 52.097 67.600,51.517 67.960,51.200 68.400 C 50.883 68.840,50.303 69.200,49.912 69.200 C 49.520 69.200,49.200 69.380,49.200 69.600 C 49.200 69.820,48.880 70.000,48.488 70.000 C 48.097 70.000,47.517 70.360,47.200 70.800 C 46.883 71.240,46.303 71.600,45.912 71.600 C 45.520 71.600,45.200 71.780,45.200 72.000 C 45.200 72.220,44.880 72.400,44.488 72.400 C 44.097 72.400,43.517 72.760,43.200 73.200 C 42.883 73.640,42.303 74.000,41.912 74.000 C 41.520 74.000,41.200 74.180,41.200 74.400 C 41.200 74.620,40.880 74.800,40.488 74.800 C 40.097 74.800,39.517 75.160,39.200 75.600 C 38.883 76.040,38.303 76.400,37.912 76.400 C 37.520 76.400,37.200 76.580,37.200 76.800 C 37.200 77.020,36.922 77.200,36.583 77.200 C 36.244 77.200,35.580 77.560,35.108 78.000 C 34.636 78.440,34.013 78.800,33.725 78.800 C 33.436 78.800,33.200 78.980,33.200 79.200 C 33.200 79.420,32.880 79.600,32.488 79.600 C 32.097 79.600,31.517 79.960,31.200 80.400 C 30.883 80.840,30.303 81.200,29.912 81.200 C 29.520 81.200,29.200 81.380,29.200 81.600 C 29.200 81.820,28.880 82.000,28.488 82.000 C 28.097 82.000,27.517 82.360,27.200 82.800 C 26.883 83.240,26.303 83.600,25.912 83.600 C 25.520 83.600,25.200 83.780,25.200 84.000 C 25.200 84.220,24.880 84.400,24.488 84.400 C 24.097 84.400,23.517 84.760,23.200 85.200 C 22.883 85.640,22.303 86.000,21.912 86.000 C 21.520 86.000,21.200 86.180,21.200 86.400 C 21.200 86.620,20.964 86.800,20.675 86.800 C 20.387 86.800,19.764 87.160,19.292 87.600 C 18.820 88.040,18.156 88.400,17.817 88.400 C 17.478 88.400,17.200 88.580,17.200 88.800 C 17.200 89.020,16.964 89.200,16.675 89.200 C 16.387 89.200,15.764 89.560,15.292 90.000 C 14.820 90.440,14.156 90.800,13.817 90.800 C 13.478 90.800,13.200 90.980,13.200 91.200 C 13.200 91.420,12.964 91.600,12.675 91.600 C 12.387 91.600,11.764 91.960,11.292 92.400 C 10.820 92.840,10.156 93.200,9.817 93.200 C 9.269 93.200,9.200 95.606,9.200 114.800 L 9.200 136.400 10.217 136.400 C 10.776 136.400,11.620 136.040,12.092 135.600 C 12.564 135.160,13.187 134.800,13.475 134.800 C 13.764 134.800,14.000 134.620,14.000 134.400 C 14.000 134.180,14.360 134.000,14.800 134.000 C 15.240 134.000,15.600 133.820,15.600 133.600 C 15.600 133.380,15.836 133.200,16.125 133.200 C 16.413 133.200,17.036 132.840,17.508 132.400 C 17.980 131.960,18.644 131.600,18.983 131.600 C 19.322 131.600,19.600 131.420,19.600 131.200 C 19.600 130.980,19.836 130.800,20.125 130.800 C 20.413 130.800,21.036 130.440,21.508 130.000 C 21.980 129.560,22.644 129.200,22.983 129.200 C 23.322 129.200,23.600 129.020,23.600 128.800 C 23.600 128.580,23.836 128.400,24.125 128.400 C 24.413 128.400,25.036 128.040,25.508 127.600 C 25.980 127.160,26.644 126.800,26.983 126.800 C 27.322 126.800,27.600 126.620,27.600 126.400 C 27.600 126.180,27.836 126.000,28.125 126.000 C 28.413 126.000,29.036 125.640,29.508 125.200 C 29.980 124.760,30.644 124.400,30.983 124.400 C 31.322 124.400,31.600 124.220,31.600 124.000 C 31.600 123.780,31.836 123.600,32.125 123.600 C 32.413 123.600,33.036 123.240,33.508 122.800 C 33.980 122.360,34.644 122.000,34.983 122.000 C 35.322 122.000,35.600 121.820,35.600 121.600 C 35.600 121.380,35.836 121.200,36.125 121.200 C 36.413 121.200,37.036 120.840,37.508 120.400 C 37.980 119.960,38.644 119.600,38.983 119.600 C 39.322 119.600,39.600 119.420,39.600 119.200 C 39.600 118.980,39.836 118.800,40.125 118.800 C 40.413 118.800,41.036 118.440,41.508 118.000 C 41.980 117.560,42.644 117.200,42.983 117.200 C 43.322 117.200,43.600 117.020,43.600 116.800 C 43.600 116.580,43.836 116.400,44.125 116.400 C 44.413 116.400,45.036 116.040,45.508 115.600 C 45.980 115.160,46.644 114.800,46.983 114.800 C 47.322 114.800,47.600 114.620,47.600 114.400 C 47.600 114.180,47.836 114.000,48.125 114.000 C 48.413 114.000,49.036 113.640,49.508 113.200 C 49.980 112.760,50.644 112.400,50.983 112.400 C 51.322 112.400,51.600 112.220,51.600 112.000 C 51.600 111.780,51.836 111.600,52.125 111.600 C 52.413 111.600,53.036 111.240,53.508 110.800 C 53.980 110.360,54.644 110.000,54.983 110.000 C 55.322 110.000,55.600 109.820,55.600 109.600 C 55.600 109.380,55.836 109.200,56.125 109.200 C 56.413 109.200,57.036 108.840,57.508 108.400 C 57.980 107.960,58.644 107.600,58.983 107.600 C 59.322 107.600,59.600 107.420,59.600 107.200 C 59.600 106.980,59.836 106.800,60.125 106.800 C 60.413 106.800,61.036 106.440,61.508 106.000 C 61.980 105.560,62.644 105.200,62.983 105.200 C 63.322 105.200,63.600 105.020,63.600 104.800 C 63.600 104.580,63.836 104.400,64.125 104.400 C 64.413 104.400,65.036 104.040,65.508 103.600 C 65.980 103.160,66.562 102.800,66.800 102.800 C 67.038 102.800,67.620 102.440,68.092 102.000 C 68.564 101.560,69.187 101.200,69.475 101.200 C 69.764 101.200,70.000 101.020,70.000 100.800 C 70.000 100.580,70.278 100.400,70.617 100.400 C 70.956 100.400,71.620 100.040,72.092 99.600 C 72.564 99.160,73.187 98.800,73.475 98.800 C 73.764 98.800,74.000 98.620,74.000 98.400 C 74.000 98.180,74.360 98.000,74.800 98.000 C 75.240 98.000,75.600 97.820,75.600 97.600 C 75.600 97.380,75.836 97.200,76.125 97.200 C 76.413 97.200,77.036 96.840,77.508 96.400 C 77.980 95.960,78.644 95.600,78.983 95.600 C 79.322 95.600,79.600 95.420,79.600 95.200 C 79.600 94.980,79.836 94.800,80.125 94.800 C 80.413 94.800,81.036 94.440,81.508 94.000 C 81.980 93.560,82.644 93.200,82.983 93.200 C 83.322 93.200,83.600 93.020,83.600 92.800 C 83.600 92.580,83.836 92.400,84.125 92.400 C 84.413 92.400,85.036 92.040,85.508 91.600 C 85.980 91.160,86.644 90.800,86.983 90.800 C 87.322 90.800,87.600 90.620,87.600 90.400 C 87.600 90.180,87.836 90.000,88.125 90.000 C 88.413 90.000,89.036 89.640,89.508 89.200 C 89.980 88.760,90.644 88.400,90.983 88.400 C 91.322 88.400,91.600 88.220,91.600 88.000 C 91.600 87.780,91.836 87.600,92.125 87.600 C 92.413 87.600,93.036 87.240,93.508 86.800 C 93.980 86.360,94.644 86.000,94.983 86.000 C 95.322 86.000,95.600 85.820,95.600 85.600 C 95.600 85.380,95.836 85.200,96.125 85.200 C 96.413 85.200,97.036 84.840,97.508 84.400 C 97.980 83.960,98.644 83.600,98.983 83.600 C 99.322 83.600,99.600 83.420,99.600 83.200 C 99.600 82.980,99.836 82.800,100.125 82.800 C 100.413 82.800,101.036 82.440,101.508 82.000 C 101.980 81.560,102.644 81.200,102.983 81.200 C 103.322 81.200,103.600 81.020,103.600 80.800 C 103.600 80.580,103.836 80.400,104.125 80.400 C 104.413 80.400,105.036 80.040,105.508 79.600 C 105.980 79.160,106.644 78.800,106.983 78.800 C 107.322 78.800,107.600 78.620,107.600 78.400 C 107.600 78.180,107.920 78.000,108.312 78.000 C 108.703 78.000,109.283 77.640,109.600 77.200 C 109.917 76.760,110.497 76.400,110.888 76.400 C 111.280 76.400,111.600 76.220,111.600 76.000 C 111.600 75.780,111.920 75.600,112.312 75.600 C 112.703 75.600,113.283 75.240,113.600 74.800 C 113.917 74.360,114.497 74.000,114.888 74.000 C 115.280 74.000,115.600 73.820,115.600 73.600 C 115.600 73.380,115.878 73.200,116.217 73.200 C 116.556 73.200,117.220 72.840,117.692 72.400 C 118.164 71.960,118.787 71.600,119.075 71.600 C 119.364 71.600,119.600 71.420,119.600 71.200 C 119.600 70.980,119.878 70.800,120.217 70.800 C 120.556 70.800,121.220 70.440,121.692 70.000 C 122.164 69.560,122.787 69.200,123.075 69.200 C 123.364 69.200,123.600 69.020,123.600 68.800 C 123.600 68.580,123.878 68.400,124.217 68.400 C 124.556 68.400,125.220 68.040,125.692 67.600 C 126.164 67.160,126.787 66.800,127.075 66.800 C 127.364 66.800,127.600 66.620,127.600 66.400 C 127.600 66.180,127.878 66.000,128.217 66.000 C 128.556 66.000,129.220 65.640,129.692 65.200 C 130.164 64.760,130.787 64.400,131.075 64.400 C 131.364 64.400,131.600 64.220,131.600 64.000 C 131.600 63.780,131.878 63.600,132.217 63.600 C 132.556 63.600,133.220 63.240,133.692 62.800 C 134.164 62.360,134.787 62.000,135.075 62.000 C 135.364 62.000,135.600 61.820,135.600 61.600 C 135.600 61.380,135.920 61.200,136.312 61.200 C 136.703 61.200,137.283 60.840,137.600 60.400 C 137.917 59.960,138.497 59.600,138.888 59.600 C 139.280 59.600,139.600 59.420,139.600 59.200 C 139.600 58.980,139.920 58.800,140.312 58.800 C 140.703 58.800,141.283 58.440,141.600 58.000 C 141.917 57.560,142.497 57.200,142.888 57.200 C 143.280 57.200,143.600 57.020,143.600 56.800 C 143.600 56.580,143.920 56.400,144.312 56.400 C 144.703 56.400,145.283 56.040,145.600 55.600 C 145.917 55.160,146.497 54.800,146.888 54.800 C 147.280 54.800,147.600 54.620,147.600 54.400 C 147.600 54.180,147.836 54.000,148.125 54.000 C 148.413 54.000,149.036 53.640,149.508 53.200 C 149.980 52.760,150.644 52.400,150.983 52.400 C 151.322 52.400,151.600 52.220,151.600 52.000 C 151.600 51.301,153.416 51.569,154.308 52.400 C 154.780 52.840,155.444 53.200,155.783 53.200 C 156.122 53.200,156.400 53.380,156.400 53.600 C 156.400 53.820,156.760 54.000,157.200 54.000 C 157.640 54.000,158.000 54.180,158.000 54.400 C 158.000 54.620,158.236 54.800,158.525 54.800 C 158.813 54.800,159.436 55.160,159.908 55.600 C 160.380 56.040,161.044 56.400,161.383 56.400 C 161.722 56.400,162.000 56.580,162.000 56.800 C 162.000 57.020,162.236 57.200,162.525 57.200 C 162.813 57.200,163.436 57.560,163.908 58.000 C 164.380 58.440,165.044 58.800,165.383 58.800 C 165.722 58.800,166.000 58.980,166.000 59.200 C 166.000 59.420,166.278 59.600,166.617 59.600 C 166.956 59.600,167.620 59.960,168.092 60.400 C 168.564 60.840,169.187 61.200,169.475 61.200 C 169.764 61.200,170.000 61.380,170.000 61.600 C 170.000 61.820,170.360 62.000,170.800 62.000 C 171.240 62.000,171.600 62.159,171.600 62.353 C 171.600 62.548,171.915 62.807,172.300 62.929 C 173.236 63.225,175.366 64.524,175.533 64.900 C 175.607 65.065,175.929 65.200,176.250 65.200 C 176.571 65.200,177.220 65.560,177.692 66.000 C 178.164 66.440,178.787 66.800,179.075 66.800 C 179.364 66.800,179.600 66.980,179.600 67.200 C 179.600 67.420,179.960 67.600,180.400 67.600 C 180.840 67.600,181.200 67.780,181.200 68.000 C 181.200 68.220,181.560 68.400,182.000 68.400 C 182.440 68.400,182.800 68.580,182.800 68.800 C 182.800 69.020,183.036 69.200,183.325 69.200 C 183.613 69.200,184.236 69.560,184.708 70.000 C 185.180 70.440,185.844 70.800,186.183 70.800 C 186.522 70.800,186.800 70.959,186.800 71.153 C 186.800 71.348,187.115 71.607,187.500 71.729 C 188.436 72.025,190.566 73.324,190.733 73.700 C 190.807 73.865,191.129 74.000,191.450 74.000 C 191.771 74.000,192.420 74.360,192.892 74.800 C 193.364 75.240,193.987 75.600,194.275 75.600 C 194.564 75.600,194.800 75.780,194.800 76.000 C 194.800 76.220,195.160 76.400,195.600 76.400 C 196.040 76.400,196.400 76.580,196.400 76.800 C 196.400 77.020,196.760 77.200,197.200 77.200 C 197.640 77.200,198.000 77.380,198.000 77.600 C 198.000 77.820,198.236 78.000,198.525 78.000 C 198.813 78.000,199.436 78.360,199.908 78.800 C 200.380 79.240,201.044 79.600,201.383 79.600 C 201.722 79.600,202.000 79.780,202.000 80.000 C 202.000 80.220,202.278 80.400,202.617 80.400 C 202.956 80.400,203.620 80.760,204.092 81.200 C 204.564 81.640,205.187 82.000,205.475 82.000 C 205.764 82.000,206.000 82.180,206.000 82.400 C 206.000 82.620,206.360 82.800,206.800 82.800 C 207.240 82.800,207.600 82.980,207.600 83.200 C 207.600 83.420,207.836 83.600,208.125 83.600 C 208.413 83.600,209.036 83.960,209.508 84.400 C 209.980 84.840,210.644 85.200,210.983 85.200 C 211.322 85.200,211.600 85.380,211.600 85.600 C 211.600 85.820,211.878 86.000,212.217 86.000 C 212.556 86.000,213.220 86.360,213.692 86.800 C 214.164 87.240,214.787 87.600,215.075 87.600 C 215.364 87.600,215.600 87.780,215.600 88.000 C 215.600 88.220,215.960 88.400,216.400 88.400 C 216.840 88.400,217.200 88.580,217.200 88.800 C 217.200 89.020,217.478 89.200,217.817 89.200 C 218.156 89.200,218.820 89.560,219.292 90.000 C 219.764 90.440,220.387 90.800,220.675 90.800 C 220.964 90.800,221.200 90.980,221.200 91.200 C 221.200 91.420,221.560 91.600,222.000 91.600 C 222.440 91.600,222.800 91.780,222.800 92.000 C 222.800 92.220,223.036 92.400,223.325 92.400 C 223.613 92.400,224.236 92.760,224.708 93.200 C 225.180 93.640,225.844 94.000,226.183 94.000 C 226.522 94.000,226.800 94.180,226.800 94.400 C 226.800 94.620,227.078 94.800,227.417 94.800 C 227.756 94.800,228.420 95.160,228.892 95.600 C 229.364 96.040,229.987 96.400,230.275 96.400 C 230.564 96.400,230.800 96.580,230.800 96.800 C 230.800 97.020,231.160 97.200,231.600 97.200 C 232.040 97.200,232.400 97.380,232.400 97.600 C 232.400 97.820,232.678 98.000,233.017 98.000 C 233.356 98.000,234.020 98.360,234.492 98.800 C 234.964 99.240,235.587 99.600,235.875 99.600 C 236.164 99.600,236.400 99.780,236.400 100.000 C 236.400 100.220,236.760 100.400,237.200 100.400 C 237.640 100.400,238.000 100.580,238.000 100.800 C 238.000 101.020,238.236 101.200,238.525 101.200 C 238.813 101.200,239.436 101.560,239.908 102.000 C 240.380 102.440,241.044 102.800,241.383 102.800 C 241.722 102.800,242.000 102.980,242.000 103.200 C 242.000 103.420,242.278 103.600,242.617 103.600 C 242.956 103.600,243.620 103.960,244.092 104.400 C 244.564 104.840,245.187 105.200,245.475 105.200 C 245.764 105.200,246.000 105.380,246.000 105.600 C 246.000 105.820,246.360 106.000,246.800 106.000 C 247.240 106.000,247.600 106.180,247.600 106.400 C 247.600 106.620,247.878 106.800,248.217 106.800 C 248.556 106.800,249.220 107.160,249.692 107.600 C 250.164 108.040,250.787 108.400,251.075 108.400 C 251.364 108.400,251.600 108.580,251.600 108.800 C 251.600 109.020,251.878 109.200,252.217 109.200 C 252.556 109.200,253.220 109.560,253.692 110.000 C 254.164 110.440,254.787 110.800,255.075 110.800 C 255.364 110.800,255.600 110.980,255.600 111.200 C 255.600 111.420,255.960 111.600,256.400 111.600 C 256.840 111.600,257.200 111.780,257.200 112.000 C 257.200 112.220,257.560 112.400,258.000 112.400 C 258.440 112.400,258.800 112.580,258.800 112.800 C 258.800 113.020,259.036 113.200,259.325 113.200 C 259.613 113.200,260.236 113.560,260.708 114.000 C 261.180 114.440,261.844 114.800,262.183 114.800 C 262.522 114.800,262.800 114.980,262.800 115.200 C 262.800 115.420,263.036 115.600,263.325 115.600 C 263.613 115.600,264.236 115.960,264.708 116.400 C 265.180 116.840,265.844 117.200,266.183 117.200 C 266.522 117.200,266.800 117.380,266.800 117.600 C 266.800 117.820,267.078 118.000,267.417 118.000 C 267.756 118.000,268.420 118.360,268.892 118.800 C 269.364 119.240,269.987 119.600,270.275 119.600 C 270.564 119.600,270.800 119.780,270.800 120.000 C 270.800 120.220,271.160 120.400,271.600 120.400 C 272.040 120.400,272.400 120.580,272.400 120.800 C 272.400 121.020,272.678 121.200,273.017 121.200 C 273.356 121.200,274.020 121.560,274.492 122.000 C 274.964 122.440,275.587 122.800,275.875 122.800 C 276.164 122.800,276.400 122.980,276.400 123.200 C 276.400 123.420,276.760 123.600,277.200 123.600 C 277.640 123.600,278.000 123.780,278.000 124.000 C 278.000 124.220,278.236 124.400,278.525 124.400 C 278.813 124.400,279.436 124.760,279.908 125.200 C 280.380 125.640,281.044 126.000,281.383 126.000 C 281.722 126.000,282.000 126.180,282.000 126.400 C 282.000 126.620,282.278 126.800,282.617 126.800 C 282.956 126.800,283.620 127.160,284.092 127.600 C 284.564 128.040,285.187 128.400,285.475 128.400 C 285.764 128.400,286.000 128.580,286.000 128.800 C 286.000 129.020,286.360 129.200,286.800 129.200 C 287.240 129.200,287.600 129.380,287.600 129.600 C 287.600 129.820,287.878 130.000,288.217 130.000 C 288.556 130.000,289.220 130.360,289.692 130.800 C 290.164 131.240,290.787 131.600,291.075 131.600 C 291.364 131.600,291.600 131.780,291.600 132.000 C 291.600 132.220,291.960 132.400,292.400 132.400 C 292.840 132.400,293.200 132.580,293.200 132.800 C 293.200 133.020,293.436 133.200,293.725 133.200 C 294.013 133.200,294.636 133.560,295.108 134.000 C 295.580 134.440,296.244 134.800,296.583 134.800 C 296.922 134.800,297.200 134.980,297.200 135.200 C 297.200 135.420,297.560 135.600,298.000 135.600 C 298.440 135.600,298.800 135.780,298.800 136.000 C 298.800 136.220,299.160 136.400,299.600 136.400 C 300.040 136.400,300.400 136.220,300.400 136.000 C 300.400 135.780,300.636 135.600,300.925 135.600 C 301.213 135.600,301.836 135.240,302.308 134.800 C 302.780 134.360,303.444 134.000,303.783 134.000 C 304.122 134.000,304.400 133.820,304.400 133.600 C 304.400 133.380,304.720 133.200,305.112 133.200 C 305.503 133.200,306.083 132.840,306.400 132.400 C 306.717 131.960,307.297 131.600,307.688 131.600 C 308.080 131.600,308.400 131.420,308.400 131.200 C 308.400 130.980,308.678 130.800,309.017 130.800 C 309.356 130.800,310.020 130.440,310.492 130.000 C 310.964 129.560,311.587 129.200,311.875 129.200 C 312.164 129.200,312.400 129.020,312.400 128.800 C 312.400 128.580,312.760 128.400,313.200 128.400 C 313.640 128.400,314.000 128.220,314.000 128.000 C 314.000 127.780,314.236 127.600,314.525 127.600 C 314.813 127.600,315.436 127.240,315.908 126.800 C 316.380 126.360,317.044 126.000,317.383 126.000 C 317.722 126.000,318.000 125.820,318.000 125.600 C 318.000 125.380,318.236 125.200,318.525 125.200 C 318.813 125.200,319.436 124.840,319.908 124.400 C 320.380 123.960,321.044 123.600,321.383 123.600 C 321.722 123.600,322.000 123.420,322.000 123.200 C 322.000 122.980,322.236 122.800,322.525 122.800 C 322.813 122.800,323.436 122.440,323.908 122.000 C 324.380 121.560,325.044 121.200,325.383 121.200 C 325.722 121.200,326.000 121.020,326.000 120.800 C 326.000 120.580,326.278 120.400,326.617 120.400 C 326.956 120.400,327.620 120.040,328.092 119.600 C 328.564 119.160,329.187 118.800,329.475 118.800 C 329.764 118.800,330.000 118.620,330.000 118.400 C 330.000 118.180,330.360 118.000,330.800 118.000 C 331.240 118.000,331.600 117.864,331.600 117.698 C 331.600 117.531,332.140 117.156,332.800 116.864 C 334.252 116.221,334.509 114.458,333.200 114.116 C 332.760 114.001,332.400 113.748,332.400 113.553 C 332.400 113.359,332.122 113.200,331.783 113.200 C 331.444 113.200,330.780 112.840,330.308 112.400 C 329.836 111.960,329.213 111.600,328.925 111.600 C 328.636 111.600,328.400 111.420,328.400 111.200 C 328.400 110.980,328.040 110.800,327.600 110.800 C 327.160 110.800,326.800 110.620,326.800 110.400 C 326.800 110.180,326.564 110.000,326.275 110.000 C 325.987 110.000,325.364 109.640,324.892 109.200 C 324.420 108.760,323.756 108.400,323.417 108.400 C 323.078 108.400,322.800 108.220,322.800 108.000 C 322.800 107.780,322.522 107.600,322.183 107.600 C 321.844 107.600,321.180 107.240,320.708 106.800 C 320.236 106.360,319.613 106.000,319.325 106.000 C 319.036 106.000,318.800 105.820,318.800 105.600 C 318.800 105.380,318.522 105.200,318.183 105.200 C 317.844 105.200,317.180 104.840,316.708 104.400 C 316.236 103.960,315.613 103.600,315.325 103.600 C 315.036 103.600,314.800 103.420,314.800 103.200 C 314.800 102.980,314.440 102.800,314.000 102.800 C 313.560 102.800,313.200 102.620,313.200 102.400 C 313.200 102.180,312.880 102.000,312.488 102.000 C 312.097 102.000,311.517 101.640,311.200 101.200 C 310.883 100.760,310.303 100.400,309.912 100.400 C 309.520 100.400,309.200 100.220,309.200 100.000 C 309.200 99.780,308.880 99.600,308.488 99.600 C 308.097 99.600,307.517 99.240,307.200 98.800 C 306.883 98.360,306.303 98.000,305.912 98.000 C 305.520 98.000,305.200 97.820,305.200 97.600 C 305.200 97.380,304.922 97.200,304.583 97.200 C 304.244 97.200,303.580 96.840,303.108 96.400 C 302.636 95.960,302.013 95.600,301.725 95.600 C 301.436 95.600,301.200 95.420,301.200 95.200 C 301.200 94.980,300.922 94.800,300.583 94.800 C 300.244 94.800,299.580 94.440,299.108 94.000 C 298.636 93.560,298.013 93.200,297.725 93.200 C 297.436 93.200,297.200 93.020,297.200 92.800 C 297.200 92.580,296.922 92.400,296.583 92.400 C 296.244 92.400,295.580 92.040,295.108 91.600 C 294.636 91.160,294.013 90.800,293.725 90.800 C 293.436 90.800,293.200 90.620,293.200 90.400 C 293.200 90.180,292.840 90.000,292.400 90.000 C 291.960 90.000,291.600 89.820,291.600 89.600 C 291.600 89.380,291.364 89.200,291.075 89.200 C 290.787 89.200,290.164 88.840,289.692 88.400 C 289.220 87.960,288.556 87.600,288.217 87.600 C 287.878 87.600,287.600 87.420,287.600 87.200 C 287.600 86.980,287.322 86.800,286.983 86.800 C 286.644 86.800,285.980 86.440,285.508 86.000 C 285.036 85.560,284.413 85.200,284.125 85.200 C 283.836 85.200,283.600 85.020,283.600 84.800 C 283.600 84.580,283.322 84.400,282.983 84.400 C 282.644 84.400,281.980 84.040,281.508 83.600 C 281.036 83.160,280.413 82.800,280.125 82.800 C 279.836 82.800,279.600 82.620,279.600 82.400 C 279.600 82.180,279.322 82.000,278.983 82.000 C 278.644 82.000,277.980 81.640,277.508 81.200 C 277.036 80.760,276.413 80.400,276.125 80.400 C 275.836 80.400,275.600 80.220,275.600 80.000 C 275.600 79.780,275.240 79.600,274.800 79.600 C 274.360 79.600,274.000 79.420,274.000 79.200 C 274.000 78.980,273.764 78.800,273.475 78.800 C 273.187 78.800,272.564 78.440,272.092 78.000 C 271.620 77.560,270.956 77.200,270.617 77.200 C 270.278 77.200,270.000 77.020,270.000 76.800 C 270.000 76.580,269.722 76.400,269.383 76.400 C 269.044 76.400,268.380 76.040,267.908 75.600 C 267.436 75.160,266.813 74.800,266.525 74.800 C 266.236 74.800,266.000 74.620,266.000 74.400 C 266.000 74.180,265.640 74.000,265.200 74.000 C 264.760 74.000,264.400 73.820,264.400 73.600 C 264.400 73.380,264.164 73.200,263.875 73.200 C 263.587 73.200,262.964 72.840,262.492 72.400 C 262.020 71.960,261.438 71.600,261.200 71.600 C 260.962 71.600,260.380 71.240,259.908 70.800 C 259.436 70.360,258.813 70.000,258.525 70.000 C 258.236 70.000,258.000 69.820,258.000 69.600 C 258.000 69.380,257.640 69.200,257.200 69.200 C 256.760 69.200,256.400 69.020,256.400 68.800 C 256.400 68.580,256.080 68.400,255.688 68.400 C 255.297 68.400,254.717 68.040,254.400 67.600 C 254.083 67.160,253.503 66.800,253.112 66.800 C 252.720 66.800,252.400 66.620,252.400 66.400 C 252.400 66.180,252.122 66.000,251.783 66.000 C 251.444 66.000,250.780 65.640,250.308 65.200 C 249.836 64.760,249.213 64.400,248.925 64.400 C 248.636 64.400,248.400 64.220,248.400 64.000 C 248.400 63.780,248.122 63.600,247.783 63.600 C 247.444 63.600,246.780 63.240,246.308 62.800 C 245.836 62.360,245.213 62.000,244.925 62.000 C 244.636 62.000,244.400 61.820,244.400 61.600 C 244.400 61.380,244.040 61.200,243.600 61.200 C 243.160 61.200,242.800 61.020,242.800 60.800 C 242.800 60.580,242.564 60.400,242.275 60.400 C 241.987 60.400,241.364 60.040,240.892 59.600 C 240.420 59.160,239.756 58.800,239.417 58.800 C 239.078 58.800,238.800 58.620,238.800 58.400 C 238.800 58.180,238.522 58.000,238.183 58.000 C 237.844 58.000,237.180 57.640,236.708 57.200 C 236.236 56.760,235.613 56.400,235.325 56.400 C 235.036 56.400,234.800 56.220,234.800 56.000 C 234.800 55.780,234.440 55.600,234.000 55.600 C 233.560 55.600,233.200 55.420,233.200 55.200 C 233.200 54.980,232.964 54.800,232.675 54.800 C 232.387 54.800,231.764 54.440,231.292 54.000 C 230.820 53.560,230.156 53.200,229.817 53.200 C 229.478 53.200,229.200 53.020,229.200 52.800 C 229.200 52.580,228.964 52.400,228.675 52.400 C 228.387 52.400,227.764 52.040,227.292 51.600 C 226.820 51.160,226.156 50.800,225.817 50.800 C 225.478 50.800,225.200 50.620,225.200 50.400 C 225.200 50.180,224.880 50.000,224.488 50.000 C 224.097 50.000,223.517 49.640,223.200 49.200 C 222.883 48.760,222.303 48.400,221.912 48.400 C 221.520 48.400,221.200 48.220,221.200 48.000 C 221.200 47.780,220.922 47.600,220.583 47.600 C 220.244 47.600,219.580 47.240,219.108 46.800 C 218.636 46.360,218.013 46.000,217.725 46.000 C 217.436 46.000,217.200 45.820,217.200 45.600 C 217.200 45.380,216.922 45.200,216.583 45.200 C 216.244 45.200,215.580 44.840,215.108 44.400 C 214.636 43.960,214.013 43.600,213.725 43.600 C 213.436 43.600,213.200 43.420,213.200 43.200 C 213.200 42.980,212.922 42.800,212.583 42.800 C 212.244 42.800,211.580 42.440,211.108 42.000 C 210.636 41.560,210.013 41.200,209.725 41.200 C 209.436 41.200,209.200 41.020,209.200 40.800 C 209.200 40.580,208.840 40.400,208.400 40.400 C 207.960 40.400,207.600 40.220,207.600 40.000 C 207.600 39.780,207.364 39.600,207.075 39.600 C 206.787 39.600,206.164 39.240,205.692 38.800 C 205.220 38.360,204.556 38.000,204.217 38.000 C 203.878 38.000,203.600 37.820,203.600 37.600 C 203.600 37.380,203.322 37.200,202.983 37.200 C 202.644 37.200,201.980 36.840,201.508 36.400 C 201.036 35.960,200.413 35.600,200.125 35.600 C 199.836 35.600,199.600 35.420,199.600 35.200 C 199.600 34.980,199.240 34.800,198.800 34.800 C 198.360 34.800,198.000 34.620,198.000 34.400 C 198.000 34.180,197.764 34.000,197.475 34.000 C 197.187 34.000,196.564 33.640,196.092 33.200 C 195.620 32.760,195.038 32.400,194.800 32.400 C 194.562 32.400,193.980 32.040,193.508 31.600 C 193.036 31.160,192.413 30.800,192.125 30.800 C 191.836 30.800,191.600 30.620,191.600 30.400 C 191.600 30.180,191.322 30.000,190.983 30.000 C 190.644 30.000,189.980 29.640,189.508 29.200 C 189.036 28.760,188.413 28.400,188.125 28.400 C 187.836 28.400,187.600 28.220,187.600 28.000 C 187.600 27.780,187.240 27.600,186.800 27.600 C 186.360 27.600,186.000 27.420,186.000 27.200 C 186.000 26.980,185.764 26.800,185.475 26.800 C 185.187 26.800,184.564 26.440,184.092 26.000 C 183.620 25.560,182.956 25.200,182.617 25.200 C 182.278 25.200,182.000 25.020,182.000 24.800 C 182.000 24.580,181.722 24.400,181.383 24.400 C 181.044 24.400,180.380 24.040,179.908 23.600 C 179.436 23.160,178.813 22.800,178.525 22.800 C 178.236 22.800,178.000 22.620,178.000 22.400 C 178.000 22.180,177.722 22.000,177.383 22.000 C 177.044 22.000,176.380 21.640,175.908 21.200 C 175.436 20.760,174.813 20.400,174.525 20.400 C 174.236 20.400,174.000 20.220,174.000 20.000 C 174.000 19.780,173.640 19.600,173.200 19.600 C 172.760 19.600,172.400 19.420,172.400 19.200 C 172.400 18.980,172.164 18.800,171.875 18.800 C 171.587 18.800,170.964 18.440,170.492 18.000 C 170.020 17.560,169.356 17.200,169.017 17.200 C 168.678 17.200,168.400 17.020,168.400 16.800 C 168.400 16.580,168.122 16.400,167.783 16.400 C 167.444 16.400,166.780 16.040,166.308 15.600 C 165.836 15.160,165.213 14.800,164.925 14.800 C 164.636 14.800,164.400 14.620,164.400 14.400 C 164.400 14.180,164.122 14.000,163.783 14.000 C 163.444 14.000,162.780 13.640,162.308 13.200 C 161.836 12.760,161.213 12.400,160.925 12.400 C 160.636 12.400,160.400 12.220,160.400 12.000 C 160.400 11.780,160.040 11.600,159.600 11.600 C 159.160 11.600,158.800 11.420,158.800 11.200 C 158.800 10.980,158.564 10.800,158.275 10.800 C 157.987 10.800,157.364 10.440,156.892 10.000 C 156.420 9.560,155.756 9.200,155.417 9.200 C 155.078 9.200,154.800 9.020,154.800 8.800 C 154.800 8.580,154.440 8.400,154.000 8.400 C 153.560 8.400,153.200 8.220,153.200 8.000 C 153.200 7.334,151.850 7.597,151.030 8.424 M86.000 148.000 C 86.000 148.220,85.764 148.400,85.475 148.400 C 85.187 148.400,84.564 148.760,84.092 149.200 C 83.620 149.640,82.956 150.000,82.617 150.000 C 82.278 150.000,82.000 150.180,82.000 150.400 C 82.000 150.620,81.722 150.800,81.383 150.800 C 81.044 150.800,80.380 151.160,79.908 151.600 C 79.436 152.040,78.813 152.400,78.525 152.400 C 78.236 152.400,78.000 152.580,78.000 152.800 C 78.000 153.020,77.722 153.200,77.383 153.200 C 77.044 153.200,76.380 153.560,75.908 154.000 C 75.436 154.440,74.813 154.800,74.525 154.800 C 74.236 154.800,74.000 154.980,74.000 155.200 C 74.000 155.420,73.640 155.600,73.200 155.600 C 72.760 155.600,72.400 155.780,72.400 156.000 C 72.400 156.220,72.122 156.400,71.783 156.400 C 71.444 156.400,70.780 156.760,70.308 157.200 C 69.836 157.640,69.213 158.000,68.925 158.000 C 68.636 158.000,68.400 158.180,68.400 158.400 C 68.400 158.620,68.040 158.800,67.600 158.800 C 67.160 158.800,66.800 158.980,66.800 159.200 C 66.800 159.420,66.564 159.600,66.275 159.600 C 65.987 159.600,65.364 159.960,64.892 160.400 C 64.420 160.840,63.756 161.200,63.417 161.200 C 63.078 161.200,62.800 161.380,62.800 161.600 C 62.800 161.820,62.522 162.000,62.183 162.000 C 61.844 162.000,61.180 162.360,60.708 162.800 C 60.236 163.240,59.613 163.600,59.325 163.600 C 59.036 163.600,58.800 163.780,58.800 164.000 C 58.800 164.220,58.440 164.400,58.000 164.400 C 57.560 164.400,57.200 164.580,57.200 164.800 C 57.200 165.020,56.964 165.200,56.675 165.200 C 56.387 165.200,55.764 165.560,55.292 166.000 C 54.820 166.440,54.156 166.800,53.817 166.800 C 53.478 166.800,53.200 166.980,53.200 167.200 C 53.200 167.420,52.840 167.600,52.400 167.600 C 51.399 167.600,51.101 332.387,52.100 333.329 C 52.375 333.588,53.095 334.055,53.700 334.368 C 54.305 334.680,54.800 335.085,54.800 335.268 C 54.800 335.450,55.078 335.600,55.417 335.600 C 55.756 335.600,56.420 335.960,56.892 336.400 C 57.364 336.840,57.987 337.200,58.275 337.200 C 58.564 337.200,58.800 337.380,58.800 337.600 C 58.800 337.820,59.160 338.000,59.600 338.000 C 60.040 338.000,60.400 338.180,60.400 338.400 C 60.400 338.620,60.636 338.800,60.925 338.800 C 61.213 338.800,61.836 339.160,62.308 339.600 C 62.780 340.040,63.444 340.400,63.783 340.400 C 64.122 340.400,64.400 340.580,64.400 340.800 C 64.400 341.020,64.720 341.200,65.112 341.200 C 65.503 341.200,66.083 341.560,66.400 342.000 C 66.717 342.440,67.297 342.800,67.688 342.800 C 68.080 342.800,68.400 342.980,68.400 343.200 C 68.400 343.420,68.678 343.600,69.017 343.600 C 69.356 343.600,70.020 343.960,70.492 344.400 C 70.964 344.840,71.587 345.200,71.875 345.200 C 72.164 345.200,72.400 345.380,72.400 345.600 C 72.400 345.820,72.760 346.000,73.200 346.000 C 73.640 346.000,74.000 346.180,74.000 346.400 C 74.000 346.620,74.236 346.800,74.525 346.800 C 74.813 346.800,75.436 347.160,75.908 347.600 C 76.380 348.040,76.962 348.400,77.200 348.400 C 77.438 348.400,78.020 348.760,78.492 349.200 C 78.964 349.640,79.587 350.000,79.875 350.000 C 80.164 350.000,80.400 350.180,80.400 350.400 C 80.400 350.620,80.760 350.800,81.200 350.800 C 81.640 350.800,82.000 350.980,82.000 351.200 C 82.000 351.420,82.236 351.600,82.525 351.600 C 82.813 351.600,83.436 351.960,83.908 352.400 C 84.380 352.840,85.044 353.200,85.383 353.200 C 85.722 353.200,86.000 353.380,86.000 353.600 C 86.000 353.820,86.278 354.000,86.617 354.000 C 86.956 354.000,87.620 354.360,88.092 354.800 C 88.564 355.240,89.187 355.600,89.475 355.600 C 89.764 355.600,90.000 355.780,90.000 356.000 C 90.000 356.220,90.278 356.400,90.617 356.400 C 90.956 356.400,91.620 356.760,92.092 357.200 C 92.564 357.640,93.187 358.000,93.475 358.000 C 93.764 358.000,94.000 358.180,94.000 358.400 C 94.000 358.620,94.360 358.800,94.800 358.800 C 95.240 358.800,95.600 358.980,95.600 359.200 C 95.600 359.420,95.878 359.600,96.217 359.600 C 96.556 359.600,97.220 359.960,97.692 360.400 C 98.164 360.840,98.787 361.200,99.075 361.200 C 99.364 361.200,99.600 361.380,99.600 361.600 C 99.600 361.820,99.878 362.000,100.217 362.000 C 100.556 362.000,101.220 362.360,101.692 362.800 C 102.164 363.240,102.787 363.600,103.075 363.600 C 103.364 363.600,103.600 363.780,103.600 364.000 C 103.600 364.220,103.945 364.400,104.367 364.400 C 104.788 364.400,105.193 364.535,105.267 364.700 C 105.434 365.076,107.564 366.375,108.500 366.671 C 108.885 366.793,109.200 367.052,109.200 367.247 C 109.200 367.441,109.478 367.600,109.817 367.600 C 110.156 367.600,110.820 367.960,111.292 368.400 C 111.764 368.840,112.387 369.200,112.675 369.200 C 112.964 369.200,113.200 369.380,113.200 369.600 C 113.200 369.820,113.545 370.000,113.967 370.000 C 114.388 370.000,114.793 370.135,114.867 370.300 C 115.034 370.676,117.164 371.975,118.100 372.271 C 118.485 372.393,118.800 372.652,118.800 372.847 C 118.800 373.041,119.078 373.200,119.417 373.200 C 119.756 373.200,120.420 373.560,120.892 374.000 C 121.364 374.440,121.987 374.800,122.275 374.800 C 122.564 374.800,122.800 374.980,122.800 375.200 C 122.800 375.420,123.160 375.600,123.600 375.600 C 124.040 375.600,124.400 375.780,124.400 376.000 C 124.400 376.220,124.636 376.400,124.925 376.400 C 125.213 376.400,125.836 376.760,126.308 377.200 C 126.780 377.640,127.444 378.000,127.783 378.000 C 128.122 378.000,128.400 378.180,128.400 378.400 C 128.400 378.620,128.678 378.800,129.017 378.800 C 129.356 378.800,130.020 379.160,130.492 379.600 C 130.964 380.040,131.587 380.400,131.875 380.400 C 132.164 380.400,132.400 380.580,132.400 380.800 C 132.400 381.020,132.760 381.200,133.200 381.200 C 133.640 381.200,134.000 381.380,134.000 381.600 C 134.000 381.820,134.278 382.000,134.617 382.000 C 134.956 382.000,135.620 382.360,136.092 382.800 C 136.564 383.240,137.187 383.600,137.475 383.600 C 137.764 383.600,138.000 383.780,138.000 384.000 C 138.000 384.220,138.278 384.400,138.617 384.400 C 138.956 384.400,139.620 384.760,140.092 385.200 C 140.564 385.640,141.187 386.000,141.475 386.000 C 141.764 386.000,142.000 386.180,142.000 386.400 C 142.000 386.620,142.360 386.800,142.800 386.800 C 143.240 386.800,143.600 386.980,143.600 387.200 C 143.600 387.420,143.878 387.600,144.217 387.600 C 144.556 387.600,145.220 387.960,145.692 388.400 C 146.164 388.840,146.787 389.200,147.075 389.200 C 147.364 389.200,147.600 389.380,147.600 389.600 C 147.600 389.820,147.960 390.000,148.400 390.000 C 148.840 390.000,149.200 390.180,149.200 390.400 C 149.200 390.620,149.436 390.800,149.725 390.800 C 150.013 390.800,150.636 391.160,151.108 391.600 C 152.430 392.832,224.400 392.865,224.400 391.634 C 224.400 391.167,223.931 390.659,223.200 390.336 C 222.540 390.044,222.000 389.669,222.000 389.502 C 222.000 389.336,221.722 389.200,221.383 389.200 C 221.044 389.200,220.380 388.840,219.908 388.400 C 219.436 387.960,218.813 387.600,218.525 387.600 C 218.236 387.600,218.000 387.420,218.000 387.200 C 218.000 386.980,217.640 386.800,217.200 386.800 C 216.760 386.800,216.400 386.620,216.400 386.400 C 216.400 386.180,216.164 386.000,215.875 386.000 C 215.587 386.000,214.964 385.640,214.492 385.200 C 214.020 384.760,213.356 384.400,213.017 384.400 C 212.678 384.400,212.400 384.220,212.400 384.000 C 212.400 383.780,212.122 383.600,211.783 383.600 C 211.444 383.600,210.780 383.240,210.308 382.800 C 209.836 382.360,209.213 382.000,208.925 382.000 C 208.636 382.000,208.400 381.820,208.400 381.600 C 208.400 381.380,208.122 381.200,207.783 381.200 C 207.444 381.200,206.780 380.840,206.308 380.400 C 205.836 379.960,205.213 379.600,204.925 379.600 C 204.636 379.600,204.400 379.420,204.400 379.200 C 204.400 378.980,204.040 378.800,203.600 378.800 C 203.160 378.800,202.800 378.620,202.800 378.400 C 202.800 378.180,202.564 378.000,202.275 378.000 C 201.987 378.000,201.364 377.640,200.892 377.200 C 200.420 376.760,199.756 376.400,199.417 376.400 C 199.078 376.400,198.800 376.220,198.800 376.000 C 198.800 375.780,198.522 375.600,198.183 375.600 C 197.844 375.600,197.180 375.240,196.708 374.800 C 196.236 374.360,195.613 374.000,195.325 374.000 C 195.036 374.000,194.800 373.820,194.800 373.600 C 194.800 373.380,194.440 373.200,194.000 373.200 C 193.560 373.200,193.200 373.020,193.200 372.800 C 193.200 372.580,192.964 372.400,192.675 372.400 C 192.387 372.400,191.764 372.040,191.292 371.600 C 190.820 371.160,190.238 370.800,190.000 370.800 C 189.762 370.800,189.180 370.440,188.708 370.000 C 188.236 369.560,187.613 369.200,187.325 369.200 C 187.036 369.200,186.800 369.020,186.800 368.800 C 186.800 368.580,186.440 368.400,186.000 368.400 C 185.560 368.400,185.200 368.220,185.200 368.000 C 185.200 367.780,184.922 367.600,184.583 367.600 C 184.244 367.600,183.580 367.240,183.108 366.800 C 182.636 366.360,182.013 366.000,181.725 366.000 C 181.436 366.000,181.200 365.820,181.200 365.600 C 181.200 365.380,180.840 365.200,180.400 365.200 C 179.960 365.200,179.600 365.020,179.600 364.800 C 179.600 364.580,179.364 364.400,179.075 364.400 C 178.787 364.400,178.164 364.040,177.692 363.600 C 177.220 363.160,176.556 362.800,176.217 362.800 C 175.878 362.800,175.600 362.620,175.600 362.400 C 175.600 362.180,175.364 362.000,175.075 362.000 C 174.787 362.000,174.164 361.640,173.692 361.200 C 173.220 360.760,172.556 360.400,172.217 360.400 C 171.878 360.400,171.600 360.220,171.600 360.000 C 171.600 359.780,171.322 359.600,170.983 359.600 C 170.644 359.600,169.980 359.240,169.508 358.800 C 169.036 358.360,168.413 358.000,168.125 358.000 C 167.836 358.000,167.600 357.820,167.600 357.600 C 167.600 357.380,167.322 357.200,166.983 357.200 C 166.644 357.200,165.980 356.840,165.508 356.400 C 165.036 355.960,164.413 355.600,164.125 355.600 C 163.836 355.600,163.600 355.420,163.600 355.200 C 163.600 354.980,163.240 354.800,162.800 354.800 C 162.360 354.800,162.000 354.620,162.000 354.400 C 162.000 354.180,161.680 354.000,161.288 354.000 C 160.897 354.000,160.317 353.640,160.000 353.200 C 159.683 352.760,159.103 352.400,158.712 352.400 C 158.320 352.400,158.000 352.220,158.000 352.000 C 158.000 351.780,157.722 351.600,157.383 351.600 C 157.044 351.600,156.380 351.240,155.908 350.800 C 155.436 350.360,154.813 350.000,154.525 350.000 C 154.236 350.000,154.000 349.820,154.000 349.600 C 154.000 349.380,153.722 349.200,153.383 349.200 C 153.044 349.200,152.380 348.840,151.908 348.400 C 151.436 347.960,150.813 347.600,150.525 347.600 C 150.236 347.600,150.000 347.420,150.000 347.200 C 150.000 346.980,149.640 346.800,149.200 346.800 C 148.760 346.800,148.400 346.620,148.400 346.400 C 148.400 346.180,148.164 346.000,147.875 346.000 C 147.587 346.000,146.964 345.640,146.492 345.200 C 146.020 344.760,145.356 344.400,145.017 344.400 C 144.678 344.400,144.400 344.220,144.400 344.000 C 144.400 343.780,144.080 343.600,143.688 343.600 C 143.297 343.600,142.717 343.240,142.400 342.800 C 142.083 342.360,141.503 342.000,141.112 342.000 C 140.720 342.000,140.400 341.820,140.400 341.600 C 140.400 341.380,140.122 341.200,139.783 341.200 C 139.444 341.200,138.780 340.840,138.308 340.400 C 137.836 339.960,137.213 339.600,136.925 339.600 C 136.636 339.600,136.400 339.420,136.400 339.200 C 136.400 338.980,136.122 338.800,135.783 338.800 C 135.444 338.800,134.780 338.440,134.308 338.000 C 133.836 337.560,133.213 337.200,132.925 337.200 C 132.636 337.200,132.400 337.020,132.400 336.800 C 132.400 336.580,132.040 336.400,131.600 336.400 C 131.160 336.400,130.800 336.220,130.800 336.000 C 130.800 335.780,130.564 335.600,130.275 335.600 C 129.987 335.600,129.364 335.240,128.892 334.800 C 128.420 334.360,127.756 334.000,127.417 334.000 C 127.078 334.000,126.800 333.820,126.800 333.600 C 126.800 333.380,126.522 333.200,126.183 333.200 C 125.844 333.200,125.180 332.840,124.708 332.400 C 124.236 331.960,123.613 331.600,123.325 331.600 C 123.036 331.600,122.800 331.420,122.800 331.200 C 122.800 330.980,122.440 330.800,122.000 330.800 C 121.560 330.800,121.200 330.620,121.200 330.400 C 121.200 330.180,120.964 330.000,120.675 330.000 C 120.387 330.000,119.764 329.640,119.292 329.200 C 118.820 328.760,118.238 328.400,118.000 328.400 C 117.762 328.400,117.180 328.040,116.708 327.600 C 116.236 327.160,115.613 326.800,115.325 326.800 C 115.036 326.800,114.800 326.620,114.800 326.400 C 114.800 326.180,114.440 326.000,114.000 326.000 C 113.560 326.000,113.200 325.820,113.200 325.600 C 113.200 325.380,112.922 325.200,112.583 325.200 C 112.244 325.200,111.580 324.840,111.108 324.400 C 110.636 323.960,110.013 323.600,109.725 323.600 C 109.436 323.600,109.200 323.420,109.200 323.200 C 109.200 322.980,108.840 322.800,108.400 322.800 C 107.960 322.800,107.600 322.620,107.600 322.400 C 107.600 322.180,107.364 322.000,107.075 322.000 C 106.787 322.000,106.164 321.640,105.692 321.200 C 105.220 320.760,104.556 320.400,104.217 320.400 C 103.878 320.400,103.600 320.220,103.600 320.000 C 103.600 319.780,103.364 319.600,103.075 319.600 C 102.787 319.600,102.164 319.240,101.692 318.800 C 101.220 318.360,100.556 318.000,100.217 318.000 C 99.878 318.000,99.600 317.820,99.600 317.600 C 99.600 317.380,99.322 317.200,98.983 317.200 C 98.644 317.200,97.980 316.840,97.508 316.400 C 97.036 315.960,96.413 315.600,96.125 315.600 C 95.836 315.600,95.600 315.420,95.600 315.200 C 95.600 314.980,95.240 314.800,94.800 314.800 C 94.360 314.800,94.000 314.620,94.000 314.400 C 94.000 314.180,93.764 314.000,93.475 314.000 C 93.187 314.000,92.564 313.640,92.092 313.200 C 91.620 312.760,90.956 312.400,90.617 312.400 C 90.278 312.400,90.000 312.241,90.000 312.047 C 90.000 311.852,89.640 311.599,89.200 311.484 C 88.403 311.276,88.400 310.938,88.400 229.437 L 88.400 147.600 87.200 147.600 C 86.540 147.600,86.000 147.780,86.000 148.000 " stroke="none" fill="#fc8404" fill-rule="evenodd"/><path id="path2" d="M152.200 59.200 C 152.064 59.420,151.631 59.600,151.238 59.600 C 150.845 59.600,150.198 59.960,149.800 60.400 C 149.402 60.840,148.744 61.200,148.338 61.200 C 147.932 61.200,147.600 61.380,147.600 61.600 C 147.600 61.820,147.364 62.000,147.075 62.000 C 146.787 62.000,146.164 62.360,145.692 62.800 C 145.220 63.240,144.556 63.600,144.217 63.600 C 143.878 63.600,143.600 63.780,143.600 64.000 C 143.600 64.220,143.364 64.400,143.075 64.400 C 142.787 64.400,142.164 64.760,141.692 65.200 C 141.220 65.640,140.556 66.000,140.217 66.000 C 139.878 66.000,139.600 66.180,139.600 66.400 C 139.600 66.620,139.364 66.800,139.075 66.800 C 138.787 66.800,138.164 67.160,137.692 67.600 C 137.220 68.040,136.556 68.400,136.217 68.400 C 135.878 68.400,135.600 68.580,135.600 68.800 C 135.600 69.020,135.364 69.200,135.075 69.200 C 134.787 69.200,134.164 69.560,133.692 70.000 C 133.220 70.440,132.556 70.800,132.217 70.800 C 131.878 70.800,131.600 70.980,131.600 71.200 C 131.600 71.420,131.364 71.600,131.075 71.600 C 130.787 71.600,130.164 71.960,129.692 72.400 C 129.220 72.840,128.638 73.200,128.400 73.200 C 128.162 73.200,127.580 73.560,127.108 74.000 C 126.636 74.440,126.013 74.800,125.725 74.800 C 125.436 74.800,125.200 74.980,125.200 75.200 C 125.200 75.420,124.840 75.600,124.400 75.600 C 123.960 75.600,123.600 75.780,123.600 76.000 C 123.600 76.220,123.364 76.400,123.075 76.400 C 122.787 76.400,122.164 76.760,121.692 77.200 C 121.220 77.640,120.556 78.000,120.217 78.000 C 119.878 78.000,119.600 78.180,119.600 78.400 C 119.600 78.620,119.364 78.800,119.075 78.800 C 118.787 78.800,118.164 79.160,117.692 79.600 C 117.220 80.040,116.556 80.400,116.217 80.400 C 115.878 80.400,115.600 80.580,115.600 80.800 C 115.600 81.020,115.358 81.200,115.062 81.200 C 114.766 81.200,114.198 81.560,113.800 82.000 C 113.402 82.440,112.744 82.800,112.338 82.800 C 111.932 82.800,111.600 82.980,111.600 83.200 C 111.600 83.420,111.375 83.607,111.100 83.616 C 110.825 83.625,109.977 84.165,109.215 84.816 C 108.453 85.467,107.553 86.007,107.215 86.016 C 106.877 86.025,105.977 86.565,105.215 87.216 C 104.453 87.867,103.553 88.407,103.215 88.416 C 102.877 88.425,101.977 88.965,101.215 89.616 C 100.453 90.267,99.553 90.807,99.215 90.816 C 98.877 90.825,97.977 91.365,97.215 92.016 C 96.453 92.667,95.598 93.200,95.315 93.200 C 95.032 93.200,94.800 93.359,94.800 93.553 C 94.800 93.748,94.485 94.007,94.100 94.129 C 93.374 94.359,91.150 95.634,90.800 96.021 C 90.690 96.142,89.933 96.552,89.119 96.931 C 88.304 97.310,87.404 97.847,87.119 98.125 C 86.833 98.403,85.933 98.943,85.119 99.325 C 84.304 99.707,83.397 100.240,83.103 100.510 C 82.606 100.966,81.777 101.481,79.800 102.562 C 79.360 102.803,78.910 103.090,78.800 103.200 C 78.404 103.596,76.185 104.854,75.500 105.071 C 75.115 105.193,74.800 105.452,74.800 105.647 C 74.800 105.841,74.575 106.004,74.300 106.009 C 74.025 106.014,73.350 106.370,72.800 106.800 C 72.250 107.230,71.530 107.594,71.200 107.607 C 70.870 107.621,69.977 108.165,69.215 108.816 C 68.453 109.467,67.553 110.007,67.215 110.016 C 66.877 110.025,65.977 110.565,65.215 111.216 C 64.453 111.867,63.553 112.407,63.215 112.416 C 62.877 112.425,61.977 112.965,61.215 113.616 C 60.453 114.267,59.553 114.807,59.215 114.816 C 58.877 114.825,57.977 115.365,57.215 116.016 C 56.453 116.667,55.553 117.207,55.215 117.216 C 54.877 117.225,53.977 117.765,53.215 118.416 C 52.453 119.067,51.553 119.607,51.215 119.616 C 50.877 119.625,49.977 120.165,49.215 120.816 C 48.453 121.467,47.536 122.000,47.177 122.000 C 46.818 122.000,46.198 122.360,45.800 122.800 C 45.402 123.240,44.744 123.600,44.338 123.600 C 43.932 123.600,43.600 123.780,43.600 124.000 C 43.600 124.220,43.358 124.400,43.062 124.400 C 42.766 124.400,42.198 124.760,41.800 125.200 C 41.402 125.640,40.744 126.000,40.338 126.000 C 39.932 126.000,39.600 126.180,39.600 126.400 C 39.600 126.620,39.358 126.800,39.062 126.800 C 38.766 126.800,38.198 127.160,37.800 127.600 C 37.402 128.040,36.744 128.400,36.338 128.400 C 35.932 128.400,35.600 128.559,35.600 128.753 C 35.600 128.948,35.285 129.207,34.900 129.329 C 34.215 129.546,31.996 130.804,31.600 131.200 C 31.490 131.310,30.995 131.625,30.500 131.900 C 30.005 132.175,29.195 132.625,28.700 132.900 C 28.205 133.175,27.710 133.490,27.600 133.600 C 27.204 133.996,24.985 135.254,24.300 135.471 C 23.915 135.593,23.600 135.852,23.600 136.047 C 23.600 136.241,23.368 136.400,23.085 136.400 C 22.802 136.400,21.947 136.933,21.185 137.584 C 20.423 138.235,19.530 138.782,19.200 138.800 C 18.870 138.818,17.977 139.365,17.215 140.016 C 16.453 140.667,15.553 141.207,15.215 141.216 C 14.877 141.225,13.977 141.765,13.215 142.416 C 12.453 143.067,11.598 143.600,11.315 143.600 C 11.032 143.600,10.800 143.759,10.800 143.953 C 10.800 144.148,10.440 144.401,10.000 144.516 C 9.203 144.724,9.200 145.059,9.205 226.463 L 9.210 308.200 10.599 309.100 C 11.364 309.595,12.094 310.000,12.222 310.000 C 12.351 310.000,13.241 310.540,14.200 311.200 C 15.159 311.860,16.212 312.400,16.539 312.400 C 16.866 312.400,17.193 312.542,17.267 312.714 C 17.478 313.213,19.873 314.800,20.415 314.800 C 20.685 314.800,21.197 315.115,21.553 315.500 C 21.909 315.885,23.055 316.630,24.100 317.156 C 25.145 317.681,26.000 318.266,26.000 318.456 C 26.000 318.645,26.332 318.800,26.738 318.800 C 27.144 318.800,27.802 319.160,28.200 319.600 C 28.598 320.040,29.222 320.400,29.587 320.400 C 29.951 320.400,30.636 320.760,31.108 321.200 C 31.580 321.640,32.204 322.000,32.495 322.000 C 32.786 322.000,33.283 322.360,33.600 322.800 C 33.917 323.240,34.362 323.600,34.588 323.599 C 35.153 323.597,38.568 325.329,38.733 325.700 C 38.807 325.865,39.077 326.007,39.333 326.016 C 39.590 326.025,40.423 326.565,41.185 327.216 C 42.561 328.392,44.510 328.793,45.000 328.000 C 45.136 327.780,45.021 327.600,44.744 327.600 C 44.352 327.600,44.347 327.493,44.720 327.120 C 45.090 326.750,45.200 308.118,45.200 245.691 C 45.200 159.449,45.110 163.600,46.971 163.600 C 47.317 163.600,47.600 163.420,47.600 163.200 C 47.600 162.980,47.878 162.800,48.217 162.800 C 48.556 162.800,49.220 162.440,49.692 162.000 C 50.164 161.560,50.839 161.200,51.191 161.200 C 51.542 161.200,52.453 160.667,53.215 160.016 C 53.977 159.365,54.816 158.825,55.080 158.816 C 55.344 158.807,56.360 158.260,57.338 157.600 C 58.316 156.940,59.339 156.400,59.611 156.400 C 59.883 156.400,60.399 156.085,60.757 155.700 C 61.596 154.799,63.023 154.000,63.795 154.000 C 64.128 154.000,64.400 153.848,64.400 153.663 C 64.400 153.477,65.202 152.913,66.182 152.409 C 67.163 151.905,68.325 151.157,68.766 150.746 C 69.206 150.336,69.757 150.000,69.989 150.000 C 70.532 150.000,71.939 149.193,72.955 148.300 C 73.393 147.915,74.043 147.600,74.400 147.600 C 74.757 147.600,75.407 147.285,75.845 146.900 C 76.713 146.137,77.744 145.505,80.200 144.230 C 81.080 143.774,81.890 143.310,82.000 143.199 C 82.110 143.089,82.740 142.733,83.400 142.408 C 84.060 142.083,85.226 141.318,85.991 140.708 C 86.756 140.099,87.611 139.600,87.891 139.600 C 88.171 139.600,88.400 139.420,88.400 139.200 C 88.400 138.980,88.715 138.796,89.100 138.791 C 89.485 138.786,90.250 138.430,90.800 138.000 C 91.350 137.570,92.049 137.214,92.353 137.209 C 92.657 137.204,93.199 136.885,93.557 136.500 C 94.359 135.638,95.813 134.800,96.506 134.800 C 96.791 134.800,97.283 134.440,97.600 134.000 C 97.917 133.560,98.497 133.200,98.888 133.200 C 99.280 133.200,99.600 133.064,99.600 132.898 C 99.600 132.535,102.060 131.379,102.530 131.521 C 102.711 131.575,102.769 131.474,102.659 131.295 C 102.548 131.116,103.030 130.717,103.729 130.407 C 104.428 130.098,105.349 129.520,105.775 129.122 C 106.202 128.725,106.787 128.400,107.075 128.400 C 107.364 128.400,107.600 128.220,107.600 128.000 C 107.600 127.780,107.887 127.600,108.238 127.600 C 108.892 127.600,111.294 126.080,111.533 125.514 C 111.607 125.342,111.924 125.200,112.239 125.200 C 112.917 125.200,114.248 124.474,115.355 123.500 C 115.793 123.115,116.378 122.800,116.655 122.800 C 117.217 122.800,120.924 120.413,121.133 119.916 C 121.207 119.742,121.567 119.596,121.933 119.591 C 122.300 119.586,123.050 119.230,123.600 118.800 C 124.150 118.370,124.915 118.014,125.300 118.009 C 125.685 118.004,126.000 117.820,126.000 117.600 C 126.000 117.380,126.242 117.200,126.538 117.200 C 126.834 117.200,127.402 116.840,127.800 116.400 C 128.198 115.960,128.816 115.600,129.174 115.600 C 129.531 115.600,130.083 115.240,130.400 114.800 C 130.717 114.360,131.240 114.000,131.563 114.000 C 131.885 114.000,132.542 113.631,133.022 113.179 C 133.503 112.728,134.267 112.330,134.720 112.296 C 135.174 112.262,135.475 112.122,135.390 111.985 C 135.306 111.847,135.858 111.491,136.618 111.193 C 137.378 110.895,138.000 110.548,138.000 110.423 C 138.000 110.298,138.579 109.939,139.286 109.626 C 139.993 109.313,141.325 108.549,142.244 107.928 C 143.164 107.308,144.037 106.800,144.186 106.800 C 144.334 106.800,145.284 106.230,146.297 105.533 C 147.309 104.837,148.369 104.267,148.651 104.267 C 148.934 104.267,149.072 104.117,148.959 103.933 C 148.845 103.750,148.988 103.596,149.276 103.591 C 149.564 103.586,150.250 103.230,150.800 102.800 C 151.350 102.370,152.115 102.014,152.500 102.009 C 152.885 102.004,153.200 101.820,153.200 101.600 C 153.200 101.380,153.425 101.200,153.700 101.200 C 153.975 101.199,154.724 100.748,155.365 100.197 C 156.006 99.646,157.536 98.710,158.765 98.116 C 159.994 97.523,161.090 96.939,161.200 96.818 C 161.310 96.697,161.940 96.337,162.600 96.017 C 163.260 95.696,164.101 95.187,164.468 94.884 C 165.241 94.248,167.190 93.100,169.200 92.098 C 169.970 91.714,170.949 91.085,171.375 90.700 C 171.802 90.315,172.443 90.000,172.800 90.000 C 173.157 90.000,173.798 89.685,174.225 89.300 C 174.651 88.915,175.540 88.336,176.200 88.012 C 176.860 87.689,178.152 86.924,179.072 86.312 C 179.992 85.701,180.961 85.200,181.225 85.200 C 181.490 85.200,181.999 84.885,182.357 84.500 C 183.159 83.638,184.613 82.800,185.306 82.800 C 185.591 82.800,186.083 82.440,186.400 82.000 C 186.717 81.560,187.297 81.200,187.688 81.200 C 188.509 81.200,188.634 80.172,187.900 79.452 C 186.892 78.464,183.640 76.400,183.090 76.400 C 182.779 76.400,182.198 76.040,181.800 75.600 C 181.402 75.160,180.784 74.800,180.426 74.800 C 180.069 74.800,179.517 74.440,179.200 74.000 C 178.883 73.560,178.386 73.200,178.095 73.200 C 177.804 73.200,177.180 72.840,176.708 72.400 C 176.236 71.960,175.613 71.600,175.325 71.600 C 175.036 71.600,174.800 71.420,174.800 71.200 C 174.800 70.980,174.468 70.800,174.062 70.800 C 173.656 70.800,173.030 70.475,172.671 70.078 C 172.311 69.681,171.383 69.107,170.609 68.803 C 169.834 68.499,169.200 68.104,169.200 67.925 C 169.200 67.746,168.880 67.600,168.488 67.600 C 168.097 67.600,167.517 67.240,167.200 66.800 C 166.883 66.360,166.303 66.000,165.912 66.000 C 165.520 66.000,165.200 65.854,165.200 65.675 C 165.200 65.496,164.578 65.105,163.818 64.807 C 163.058 64.509,162.510 64.145,162.601 63.999 C 162.691 63.853,162.548 63.733,162.282 63.733 C 162.017 63.732,160.567 62.982,159.059 62.066 C 157.552 61.150,156.239 60.400,156.142 60.400 C 156.046 60.400,155.580 60.040,155.108 59.600 C 154.197 58.751,152.612 58.533,152.200 59.200 M95.600 286.938 C 95.600 309.539,95.569 309.200,97.656 309.200 C 97.982 309.200,98.607 309.515,99.045 309.900 C 100.152 310.874,101.483 311.600,102.161 311.600 C 102.476 311.600,102.793 311.745,102.867 311.923 C 103.024 312.305,106.621 314.800,107.014 314.800 C 107.163 314.800,108.084 315.340,109.062 316.000 C 110.040 316.660,111.067 317.200,111.345 317.200 C 111.622 317.200,112.236 317.560,112.708 318.000 C 113.180 318.440,113.844 318.800,114.183 318.800 C 114.522 318.800,114.800 318.980,114.800 319.200 C 114.800 319.420,115.081 319.600,115.424 319.600 C 115.793 319.600,115.931 319.788,115.762 320.062 C 115.602 320.320,115.651 320.416,115.871 320.279 C 116.089 320.145,116.917 320.477,117.712 321.018 C 118.507 321.558,119.437 322.000,119.779 322.000 C 120.120 322.000,120.400 322.180,120.400 322.400 C 120.400 322.620,120.648 322.800,120.951 322.800 C 121.254 322.800,121.719 323.061,121.984 323.381 C 122.249 323.700,123.306 324.385,124.333 324.903 C 127.141 326.318,128.125 326.929,128.843 327.700 C 129.201 328.085,129.743 328.404,130.047 328.409 C 130.351 328.414,131.050 328.770,131.600 329.200 C 132.150 329.630,132.833 329.986,133.117 329.991 C 133.401 329.996,133.990 330.332,134.425 330.738 C 135.119 331.384,136.250 332.033,141.329 334.696 C 141.951 335.021,142.555 335.538,142.672 335.844 C 142.790 336.150,143.149 336.400,143.471 336.400 C 143.793 336.400,144.841 336.940,145.800 337.600 C 146.759 338.260,147.789 338.800,148.087 338.800 C 148.386 338.800,149.253 339.333,150.015 339.984 C 150.777 340.635,151.681 341.175,152.025 341.184 C 152.368 341.193,152.998 341.525,153.425 341.922 C 153.851 342.320,154.772 342.898,155.471 343.207 C 156.170 343.517,156.636 343.957,156.507 344.185 C 156.378 344.413,156.408 344.477,156.575 344.327 C 156.930 344.008,159.727 345.389,160.422 346.226 C 160.684 346.542,161.198 346.800,161.564 346.800 C 161.930 346.800,162.853 347.333,163.615 347.984 C 164.377 348.635,165.238 349.175,165.528 349.184 C 165.818 349.193,166.841 349.740,167.800 350.400 C 168.759 351.060,169.747 351.600,169.996 351.600 C 170.244 351.600,170.355 351.750,170.241 351.933 C 170.128 352.117,170.266 352.267,170.549 352.267 C 170.831 352.267,171.891 352.837,172.903 353.533 C 173.916 354.230,174.859 354.800,175.000 354.800 C 175.141 354.800,176.041 355.340,177.000 356.000 C 177.959 356.660,178.937 357.200,179.172 357.200 C 179.407 357.200,179.600 357.380,179.600 357.600 C 179.600 357.820,179.872 358.000,180.205 358.000 C 180.977 358.000,182.404 358.799,183.243 359.700 C 183.601 360.085,184.143 360.404,184.447 360.409 C 184.751 360.414,185.450 360.770,186.000 361.200 C 186.550 361.630,187.148 361.986,187.328 361.991 C 187.508 361.996,188.441 362.540,189.400 363.200 C 190.359 363.860,191.387 364.400,191.684 364.400 C 191.981 364.400,192.483 364.760,192.800 365.200 C 193.117 365.640,193.669 366.000,194.026 366.000 C 194.384 366.000,195.002 366.360,195.400 366.800 C 195.798 367.240,196.379 367.600,196.690 367.600 C 197.001 367.600,198.041 368.140,199.000 368.800 C 199.959 369.460,201.012 370.000,201.339 370.000 C 201.666 370.000,201.993 370.142,202.067 370.314 C 202.290 370.841,204.687 372.400,205.273 372.400 C 205.576 372.400,206.083 372.760,206.400 373.200 C 206.717 373.640,207.269 374.000,207.626 374.000 C 207.984 374.000,208.602 374.360,209.000 374.800 C 209.398 375.240,210.022 375.600,210.387 375.600 C 210.751 375.600,211.398 375.925,211.825 376.322 C 212.251 376.720,213.172 377.298,213.871 377.607 C 214.570 377.917,215.073 378.282,214.989 378.418 C 214.904 378.555,215.066 378.667,215.349 378.667 C 215.631 378.667,216.691 379.237,217.703 379.933 C 218.716 380.630,219.737 381.200,219.972 381.200 C 220.207 381.200,220.400 381.380,220.400 381.600 C 220.400 381.820,220.760 382.000,221.200 382.000 C 221.640 382.000,222.000 382.152,222.000 382.337 C 222.000 382.523,222.855 383.105,223.900 383.632 C 224.945 384.158,225.890 384.696,226.000 384.827 C 226.110 384.957,226.772 385.313,227.471 385.617 C 228.170 385.921,228.637 386.339,228.509 386.547 C 228.381 386.754,228.454 386.814,228.671 386.679 C 228.889 386.545,229.717 386.877,230.512 387.418 C 231.307 387.958,232.155 388.400,232.396 388.400 C 232.636 388.400,233.220 388.760,233.692 389.200 C 234.164 389.640,234.787 390.000,235.075 390.000 C 235.364 390.000,235.600 390.147,235.600 390.326 C 235.600 390.961,238.907 392.453,239.345 392.015 C 239.573 391.787,240.044 391.600,240.392 391.600 C 240.739 391.600,241.283 391.240,241.600 390.800 C 241.917 390.360,242.497 390.000,242.888 390.000 C 243.280 390.000,243.600 389.820,243.600 389.600 C 243.600 389.380,243.762 389.200,243.959 389.200 C 244.157 389.200,245.503 388.480,246.952 387.600 C 248.400 386.720,249.819 386.000,250.104 386.000 C 250.390 386.000,250.883 385.640,251.200 385.200 C 251.517 384.760,251.962 384.396,252.188 384.391 C 252.415 384.386,253.050 384.030,253.600 383.600 C 254.150 383.170,254.870 382.806,255.200 382.793 C 255.530 382.779,256.423 382.235,257.185 381.584 C 257.947 380.933,258.802 380.400,259.085 380.400 C 259.368 380.400,259.600 380.220,259.600 380.000 C 259.600 379.780,259.915 379.596,260.300 379.591 C 260.685 379.586,261.450 379.230,262.000 378.800 C 262.550 378.370,263.275 378.014,263.612 378.009 C 263.948 378.004,264.483 377.640,264.800 377.200 C 265.117 376.760,265.614 376.400,265.905 376.400 C 266.196 376.400,266.820 376.040,267.292 375.600 C 267.764 375.160,268.378 374.800,268.655 374.800 C 268.933 374.800,269.960 374.260,270.938 373.600 C 271.916 372.940,272.809 372.400,272.923 372.400 C 273.037 372.400,274.075 371.778,275.230 371.017 C 276.386 370.256,277.509 369.744,277.727 369.879 C 277.949 370.016,277.998 369.921,277.838 369.662 C 277.669 369.388,277.807 369.200,278.176 369.200 C 278.519 369.200,278.800 369.020,278.800 368.800 C 278.800 368.580,279.078 368.400,279.417 368.400 C 279.756 368.400,280.420 368.040,280.892 367.600 C 281.364 367.160,282.032 366.796,282.375 366.791 C 282.719 366.786,283.450 366.430,284.000 366.000 C 284.550 365.570,285.225 365.214,285.500 365.209 C 285.775 365.204,286.000 365.048,286.000 364.863 C 286.000 364.677,286.802 364.113,287.782 363.609 C 288.763 363.105,289.894 362.402,290.298 362.046 C 291.258 361.199,294.882 359.369,295.319 359.510 C 295.506 359.570,295.564 359.466,295.448 359.277 C 295.331 359.089,295.858 358.691,296.618 358.393 C 297.378 358.095,298.000 357.748,298.000 357.623 C 298.000 357.498,298.585 357.146,299.300 356.841 C 300.015 356.536,300.960 355.997,301.400 355.643 C 301.840 355.289,302.605 354.775,303.100 354.500 C 305.335 353.259,305.808 352.957,306.555 352.300 C 306.993 351.915,307.572 351.600,307.842 351.600 C 308.112 351.600,308.393 351.465,308.467 351.300 C 308.653 350.880,311.963 349.200,312.604 349.200 C 312.895 349.200,313.193 349.058,313.267 348.886 C 313.506 348.320,315.908 346.800,316.562 346.800 C 316.913 346.800,317.200 346.620,317.200 346.400 C 317.200 346.180,317.436 346.000,317.725 346.000 C 318.013 346.000,318.636 345.640,319.108 345.200 C 319.580 344.760,320.046 344.400,320.142 344.400 C 320.239 344.400,321.503 343.680,322.952 342.800 C 324.400 341.920,325.793 341.200,326.046 341.200 C 326.299 341.200,326.799 340.885,327.157 340.500 C 327.914 339.686,329.402 338.800,330.011 338.800 C 330.243 338.800,330.810 338.449,331.271 338.020 C 331.731 337.591,332.669 336.959,333.354 336.615 C 334.039 336.272,335.320 335.572,336.200 335.060 L 337.800 334.128 337.904 312.964 C 338.009 291.542,337.963 290.277,337.107 291.133 C 336.850 291.390,336.308 291.600,335.903 291.600 C 335.498 291.600,334.780 291.960,334.308 292.400 C 333.836 292.840,333.196 293.200,332.888 293.200 C 332.579 293.200,331.869 293.560,331.309 294.000 C 330.750 294.440,330.046 294.800,329.746 294.800 C 329.446 294.800,329.200 294.959,329.200 295.154 C 329.200 295.349,328.595 295.796,327.855 296.147 C 327.115 296.498,326.283 297.059,326.006 297.393 C 325.729 297.727,325.254 298.000,324.951 298.000 C 324.648 298.000,324.400 298.180,324.400 298.400 C 324.400 298.620,324.085 298.804,323.700 298.809 C 323.315 298.814,322.550 299.170,322.000 299.600 C 321.450 300.030,320.700 300.386,320.333 300.391 C 319.967 300.396,319.607 300.542,319.533 300.714 C 319.294 301.280,316.892 302.800,316.238 302.800 C 315.887 302.800,315.600 302.980,315.600 303.200 C 315.600 303.420,315.364 303.600,315.075 303.600 C 314.787 303.600,314.164 303.960,313.692 304.400 C 313.220 304.840,312.754 305.200,312.658 305.200 C 312.561 305.200,311.297 305.920,309.848 306.800 C 308.400 307.680,306.956 308.400,306.641 308.400 C 306.325 308.400,306.007 308.542,305.933 308.714 C 305.729 309.196,303.336 310.800,302.822 310.800 C 302.571 310.800,301.980 311.160,301.508 311.600 C 301.036 312.040,300.413 312.400,300.125 312.400 C 299.836 312.400,299.600 312.580,299.600 312.800 C 299.600 313.020,299.433 313.200,299.229 313.200 C 299.026 313.200,297.392 314.100,295.600 315.200 C 293.808 316.300,292.112 317.200,291.833 317.200 C 291.553 317.200,290.998 317.560,290.600 318.000 C 290.202 318.440,289.544 318.800,289.138 318.800 C 288.732 318.800,288.400 318.952,288.400 319.137 C 288.400 319.323,287.598 319.887,286.618 320.391 C 285.637 320.895,284.506 321.598,284.102 321.954 C 283.183 322.764,279.968 324.403,279.300 324.401 C 279.025 324.400,278.800 324.580,278.800 324.800 C 278.800 325.020,278.558 325.200,278.262 325.200 C 277.966 325.200,277.398 325.560,277.000 326.000 C 276.602 326.440,275.944 326.800,275.538 326.800 C 275.132 326.800,274.800 326.952,274.800 327.137 C 274.800 327.323,273.998 327.887,273.018 328.391 C 272.037 328.895,270.875 329.643,270.434 330.054 C 269.994 330.464,269.401 330.804,269.117 330.809 C 268.833 330.814,268.150 331.170,267.600 331.600 C 267.050 332.030,266.325 332.386,265.988 332.391 C 265.652 332.396,265.117 332.760,264.800 333.200 C 264.483 333.640,263.986 334.000,263.695 334.000 C 263.404 334.000,262.780 334.360,262.308 334.800 C 261.836 335.240,261.222 335.600,260.945 335.600 C 260.383 335.600,256.676 337.987,256.467 338.484 C 256.393 338.658,256.061 338.800,255.728 338.800 C 255.100 338.800,252.700 340.335,252.467 340.886 C 252.393 341.058,252.076 341.200,251.761 341.200 C 251.083 341.200,249.752 341.926,248.645 342.900 C 248.207 343.285,247.613 343.600,247.325 343.600 C 247.036 343.600,246.799 343.735,246.797 343.900 C 246.793 344.259,244.856 345.200,244.120 345.200 C 243.834 345.200,243.600 345.350,243.600 345.532 C 243.600 345.715,243.105 346.114,242.500 346.418 C 241.895 346.722,240.922 347.293,240.338 347.686 C 238.985 348.596,238.563 348.583,237.508 347.600 C 237.036 347.160,236.357 346.800,236.000 346.800 C 235.643 346.800,234.993 346.485,234.555 346.100 C 233.430 345.111,232.114 344.400,231.405 344.400 C 231.072 344.400,230.800 344.220,230.800 344.000 C 230.800 343.780,230.601 343.600,230.358 343.600 C 230.114 343.600,229.233 343.060,228.400 342.400 C 227.567 341.740,226.686 341.200,226.442 341.200 C 226.199 341.200,226.000 341.020,226.000 340.800 C 226.000 340.580,225.713 340.400,225.362 340.400 C 225.011 340.400,224.246 340.072,223.662 339.671 C 223.078 339.270,221.933 338.636,221.119 338.261 C 220.304 337.887,219.397 337.360,219.103 337.090 C 218.276 336.331,216.871 335.600,216.239 335.600 C 215.924 335.600,215.607 335.455,215.533 335.277 C 215.295 334.700,211.675 332.400,211.004 332.400 C 210.614 332.400,210.467 332.215,210.638 331.938 C 210.798 331.680,210.749 331.584,210.529 331.721 C 210.311 331.855,209.483 331.523,208.688 330.982 C 207.893 330.442,207.045 330.000,206.804 330.000 C 206.564 330.000,205.980 329.640,205.508 329.200 C 205.036 328.760,204.413 328.400,204.125 328.400 C 203.836 328.400,203.600 328.256,203.600 328.080 C 203.600 327.905,202.937 327.521,202.127 327.228 C 201.317 326.935,200.293 326.359,199.852 325.948 C 199.410 325.537,198.841 325.200,198.587 325.200 C 198.332 325.200,197.798 324.840,197.400 324.400 C 197.002 323.960,196.333 323.600,195.914 323.600 C 195.496 323.600,195.241 323.457,195.349 323.283 C 195.456 323.109,195.174 322.938,194.720 322.904 C 194.267 322.870,193.503 322.472,193.022 322.021 C 192.542 321.569,191.845 321.200,191.474 321.200 C 191.103 321.200,190.800 321.050,190.800 320.868 C 190.800 320.685,190.305 320.285,189.700 319.980 C 189.095 319.674,187.848 318.924,186.928 318.312 C 186.008 317.701,185.063 317.200,184.828 317.200 C 184.593 317.200,184.400 317.020,184.400 316.800 C 184.400 316.580,184.166 316.400,183.880 316.400 C 183.144 316.400,181.207 315.459,181.203 315.100 C 181.201 314.935,180.919 314.800,180.576 314.800 C 180.191 314.800,180.063 314.609,180.241 314.300 C 180.399 314.025,180.392 313.923,180.225 314.073 C 179.870 314.392,177.073 313.011,176.378 312.174 C 176.116 311.858,175.672 311.600,175.392 311.600 C 174.773 311.600,169.454 308.424,169.267 307.943 C 169.193 307.754,168.788 307.600,168.367 307.600 C 167.945 307.600,167.599 307.465,167.597 307.300 C 167.593 306.941,165.656 306.000,164.920 306.000 C 164.634 306.000,164.400 305.820,164.400 305.600 C 164.400 305.380,164.164 305.200,163.875 305.200 C 163.587 305.200,163.002 304.875,162.575 304.478 C 162.149 304.080,161.228 303.502,160.529 303.193 C 159.830 302.883,159.348 302.484,159.459 302.305 C 159.569 302.126,159.511 302.025,159.330 302.079 C 158.860 302.221,156.400 301.065,156.400 300.702 C 156.400 300.536,156.040 300.400,155.600 300.400 C 155.160 300.400,154.800 300.220,154.800 300.000 C 154.800 299.780,154.564 299.600,154.275 299.600 C 153.987 299.600,153.393 299.285,152.956 298.900 C 152.062 298.112,150.802 297.371,147.600 295.746 C 146.390 295.132,145.340 294.488,145.267 294.315 C 145.193 294.142,144.868 294.000,144.543 294.000 C 144.199 294.000,144.072 293.808,144.238 293.538 C 144.398 293.280,144.349 293.184,144.129 293.321 C 143.911 293.455,143.083 293.123,142.288 292.582 C 141.493 292.042,140.563 291.600,140.221 291.600 C 139.880 291.600,139.600 291.420,139.600 291.200 C 139.600 290.980,139.364 290.800,139.075 290.800 C 138.787 290.800,138.193 290.485,137.755 290.100 C 136.630 289.111,135.314 288.400,134.605 288.400 C 134.272 288.400,134.000 288.262,134.000 288.094 C 134.000 287.670,130.823 285.775,130.337 285.910 C 130.119 285.970,130.055 285.835,130.194 285.610 C 130.333 285.384,130.167 285.200,129.824 285.200 C 129.481 285.200,129.200 285.020,129.200 284.800 C 129.200 284.580,128.913 284.400,128.562 284.400 C 128.211 284.400,127.446 284.077,126.862 283.682 C 126.278 283.287,124.945 282.539,123.900 282.019 C 122.855 281.500,122.000 280.959,122.000 280.817 C 122.000 280.676,121.337 280.321,120.527 280.028 C 119.717 279.735,118.693 279.159,118.252 278.748 C 117.810 278.337,117.241 278.000,116.987 278.000 C 116.732 278.000,116.198 277.640,115.800 277.200 C 115.402 276.760,114.733 276.400,114.314 276.400 C 113.896 276.400,113.641 276.257,113.749 276.083 C 113.856 275.909,113.574 275.738,113.120 275.704 C 112.667 275.670,111.903 275.272,111.422 274.821 C 110.942 274.369,110.245 274.000,109.874 274.000 C 109.503 274.000,109.200 273.850,109.200 273.668 C 109.200 273.485,108.705 273.085,108.100 272.780 C 107.495 272.474,106.248 271.724,105.328 271.112 C 104.408 270.501,103.463 270.000,103.228 270.000 C 102.993 270.000,102.800 269.820,102.800 269.600 C 102.800 269.380,102.485 269.196,102.100 269.191 C 101.715 269.186,100.950 268.830,100.400 268.400 C 99.850 267.970,99.125 267.614,98.788 267.609 C 98.452 267.604,97.917 267.240,97.600 266.800 C 95.633 264.071,95.600 264.406,95.600 286.938 " stroke="none" fill="#fcc42c" fill-rule="evenodd"/><path id="path3" d="" stroke="none" fill="#c89474" fill-rule="evenodd"/><path id="path4" d="" stroke="none" fill="#1009414" fill-rule="evenodd"/></g></svg>