<svg xmlns="http://www.w3.org/2000/svg" xmlns:xlink="http://www.w3.org/1999/xlink" width="256" height="256" version="1.1" viewBox="199 -3 80 80"><g id="surface61"><path fill="#CB3C33" fill-opacity="1" fill-rule="nonzero" stroke="#f4f4f4" stroke-width="2" d="M 235.273438 55.089844 C 235.273438 64.757812 227.4375 72.589844 217.773438 72.589844 C 208.105469 72.589844 200.273438 64.757812 200.273438 55.089844 C 200.273438 45.425781 208.105469 37.589844 217.773438 37.589844 C 227.4375 37.589844 235.273438 45.425781 235.273438 55.089844"/><path fill="#9558B2" fill-opacity="1" fill-rule="nonzero" stroke="#f4f4f4" stroke-width="2" d="M 277.320312 55.089844 C 277.320312 64.757812 269.484375 72.589844 259.820312 72.589844 C 250.15625 72.589844 242.320312 64.757812 242.320312 55.089844 C 242.320312 45.425781 250.15625 37.589844 259.820312 37.589844 C 269.484375 37.589844 277.320312 45.425781 277.320312 55.089844"/><path fill="#389826" fill-opacity="1" fill-rule="nonzero" stroke="#f4f4f4" stroke-width="2" d="M 256.300781 18.671875 C 256.300781 28.335938 248.464844 36.171875 238.800781 36.171875 C 229.132812 36.171875 221.300781 28.335938 221.300781 18.671875 C 221.300781 9.007812 229.132812 1.171875 238.800781 1.171875 C 248.464844 1.171875 256.300781 9.007812 256.300781 18.671875"/></g></svg>