<svg xmlns="http://www.w3.org/2000/svg" xmlns:xlink="http://www.w3.org/1999/xlink" width="256" height="256" viewBox="105 -2 48 48" version="1.1">
    <path d="M149.647815,28.4299087 C148.961675,29.165824 148.065034,28.5350394 148.065034,28.5350394 L128.017537,6.9935855 L149.806094,26.9588743 C149.806094,26.9588743 150.333955,27.6947897 149.647815,28.4299087 Z M147.406211,21.4498627 L138.32008,11.6567723 L148.267501,20.7107616 C148.267501,20.7107616 148.52862,21.0556223 148.188764,21.4004831 C147.849711,21.7445475 147.406211,21.4498627 147.406211,21.4498627 Z M148.891776,34.4422736 C147.909969,35.4959707 146.626872,34.5935982 146.626872,34.5935982 L117.931121,3.7600179 L149.118347,32.3372689 C149.118347,32.3372689 149.873583,33.3901695 148.891776,34.4422736 Z M145.947159,39.6319107 C144.965353,40.6848113 143.681452,39.7824389 143.681452,39.7824389 L106,0 L146.17373,37.5261095 C146.17373,37.5261095 146.928163,38.5790101 145.947159,39.6319107 Z M140.510264,42.4895562 C139.528458,43.5424568 138.244556,42.6400843 138.244556,42.6400843 L109.549609,11.806504 L140.736835,40.383755 C140.736835,40.383755 141.491267,41.4366556 140.510264,42.4895562 Z M133.941319,42.5684043 C133.255179,43.3035232 132.358537,42.673535 132.358537,42.673535 L112.311041,21.1320811 L134.099597,41.0973699 C134.099597,41.0973699 134.626655,41.8332853 133.941319,42.5684043 Z M127.196419,40.8026852 C126.857366,41.147546 126.413866,40.8520648 126.413866,40.8520648 L117.327735,31.0589743 L127.275156,40.1129636 C127.275156,40.1129636 127.535472,40.4578244 127.196419,40.8026852 Z" id="Shape" fill="#FF6A3E"/>
</svg>