<svg xmlns="http://www.w3.org/2000/svg" width="256" height="256" viewBox="-2 -7 40 40" fill="none">
<path d="M27.7179 8.23453C26.6978 7.90351 26.171 8.01511 25.101 7.89443C23.447 7.70823 22.788 7.04103 22.5084 5.32388C22.352 4.36531 22.5367 2.96182 22.1373 2.0929C21.3735 0.436097 19.5863 -0.306966 17.7908 0.117149C16.2749 0.47575 15.0135 2.03946 14.9436 3.64454C14.8638 5.4772 15.8755 7.04091 17.6128 7.58054C18.4381 7.83742 19.3151 7.96673 20.1771 8.03224C21.7579 8.1512 21.8794 9.05816 22.3071 9.80467C22.5767 10.2753 22.8379 10.7391 22.8379 12.1425C22.8379 13.5459 22.575 14.0096 22.3071 14.4803C21.8794 15.2251 21.3519 15.713 19.7711 15.8337C18.9091 15.8992 18.0305 16.0285 17.2067 16.2854C15.4695 16.8267 14.4577 18.3887 14.5376 20.2213C14.6075 21.8264 15.8688 23.3901 17.3848 23.7487C19.1803 24.1746 20.9675 23.4298 21.7313 21.773C22.1324 20.9041 22.352 19.9196 22.5084 18.9611C22.7897 17.2439 23.4486 16.5767 25.101 16.3905C26.171 16.2698 27.2784 16.3905 28.281 15.8026C29.3406 15.0036 30.2872 13.8045 30.2872 12.1425C30.2872 10.4805 29.2671 8.73795 27.7179 8.23453Z" fill="#F44250"/>
<path d="M10.7468 16.0372C8.66173 16.0372 6.96094 14.2786 6.96094 12.1226C6.96094 9.96665 8.66173 8.20801 10.7468 8.20801C12.8318 8.20801 14.5326 9.96665 14.5326 12.1226C14.5326 14.2769 12.8302 16.0372 10.7468 16.0372Z" fill="#121212"/>
<path d="M3.77247 23.9928C1.69077 23.9876 -0.00498999 22.2221 1.10332e-05 20.0644C0.00503422 17.9101 1.71249 16.1567 3.7992 16.1636C5.88256 16.1688 7.57832 17.9343 7.57166 20.092C7.56663 22.2445 5.85917 23.998 3.77247 23.9928Z" fill="#121212"/>
<path d="M31.9021 23.9927C29.8138 24.0048 28.0997 22.2583 28.088 20.1076C28.0763 17.9482 29.7654 16.1758 31.8453 16.1636C33.9337 16.1516 35.6478 17.8981 35.6595 20.0488C35.6711 22.2065 33.9821 23.9806 31.9021 23.9927Z" fill="#121212"/>
</svg>