<svg xmlns="http://www.w3.org/2000/svg" viewBox="-90 -20 1024 1024" width="256" height="256">

<linearGradient id="Icon_00000033344411714133337050000008493637033666045877_" gradientUnits="userSpaceOnUse" x1="203.3477" y1="-1815.3029" x2="636.6956" y2="-1064.7222" gradientTransform="matrix(1 0 0 1 0 1930)">
	<stop offset="0" style="stop-color:#FF00A0"/>
	<stop offset="1" style="stop-color:#9600FF"/>
</linearGradient>
<path id="Icon" style="fill:url(#Icon_00000033344411714133337050000008493637033666045877_);" d="M420,257.8L653.3,387v-51.8  L420,206.3c-34.7,19.2-202.4,111.9-233.3,128.9c28.7,15.9,330.1,182.4,513.3,283.6v51.6c-24.9,13.8-280,154.7-280,154.7  C350.2,786.6,209.7,709,140,670.4V515.7l280,154.7l46.7-25.8L93.3,438.4v257.9L420,876.7c32.2-17.8,302.8-167.3,326.6-180.5V593.1  L280,335.2L420,257.8z M93.3,283.6v103.2l466.6,257.9l-140,77.4L186.6,592.9v51.8l233.3,128.9c34.7-19.2,202.4-111.9,233.3-128.9  C624.5,628.8,323.2,462.3,140,361v-51.6c24.9-13.8,280-154.7,280-154.7c69.7,38.6,210.2,116.2,280,154.7v154.7L420,309.4l-46.7,25.8  l373.3,206.3V283.6L420,103.1C387.7,121,117.2,270.5,93.3,283.6z M420,0L0,232.1v515.7l420,232.1l420-232V232.1L420,0z M793.2,722  L420,928.3L46.7,722V257.9L420,51.6l373.3,206.3L793.2,722z"/>

</svg>