<svg xmlns="http://www.w3.org/2000/svg" xmlns:xlink="http://www.w3.org/1999/xlink" width="256" height="256" viewBox="436 93 90 90"><defs><style>.cls-1{fill:none;}.cls-2{fill:#3fe0c5;}.cls-3{fill:#fafafa;}.cls-4{fill:#5e464d;}.cls-5{clip-path:url(#clip-path);}.cls-6{fill:url(#radial-gradient);}.cls-7{clip-path:url(#clip-path-2);}.cls-8{fill:#fff;}.cls-9{fill:#c93a95;}.cls-10{clip-path:url(#clip-path-3);}.cls-11{fill:#e4a45b;}.cls-12{fill:#563942;}.cls-13{clip-path:url(#clip-path-4);}.cls-14{fill:#5cc3b5;}</style><clipPath id="clip-path"><path class="cls-1" d="M504.15,142.48s-.95,17.38-.95,17.38c.2,5.59,18.86,10.59,37.63,10.59s37.64-5,37.64-10.59c0,0-1.11-17.24-1.11-17.43,0-18.89-17.71-34.31-36.6-34.31s-36.61,15.46-36.61,34.36"/></clipPath><radialGradient id="radial-gradient" cx="-1291.43" cy="-478.68" r="0.54" gradientTransform="matrix(63.78, 0, 0, -63.78, 82914.48, -30393.06)" gradientUnits="userSpaceOnUse"><stop offset="0" stop-color="#563a42"/><stop offset="1" stop-color="#563a42"/></radialGradient><clipPath id="clip-path-2"><rect class="cls-1" x="503.2" y="106.78" width="75.27" height="63.68"/></clipPath><clipPath id="clip-path-3"><rect class="cls-1" x="387.45" y="101.2" width="65.21" height="73.32"/></clipPath><clipPath id="clip-path-4"><rect class="cls-1" x="437.99" y="95.72" width="85.54" height="84.28"/></clipPath></defs><g class="cls-13"><path class="cls-12" d="M480.55,95.72c23,0,41.66,18.87,41.66,42.14S503.56,180,480.55,180s-41.65-18.87-41.65-42.14,18.65-42.14,41.65-42.14"/><path class="cls-8" d="M467.46,175.23c1.69.58,7.43,2.44,7.67.62.13-1-2.88-2-7-4.19A65.68,65.68,0,0,1,452.35,160a36.22,36.22,0,0,1-10.84-25.19c-.35-12.75,4.66-23.06,12.84-29.7A42,42,0,0,0,438,137.35a39.24,39.24,0,0,0,7.18,24.07,27.09,27.09,0,0,0,5.23,5.14,65.36,65.36,0,0,0,17,8.68"/><path class="cls-8" d="M523,128.16c-2.59-12.15-10.6-20.65-21.35-26.66,8.21,5.85,19.77,18.28,13,29.25-5.79,8.78-19.83,7.06-27.51,2.9-9.1-5-20.54-16.11-9.28-27,7.3-7.05,30.55.85,26.44,11.39-2.38,6.13-11.66,4.77-15.84,1.77-3.08-2.21-5.67-6-4.3-9.94.42-1.27.38-3.2-1.4-1.77a7,7,0,0,0-2.22,4.48c-1.94,13.74,22.51,24.38,29.79,11.1,3.76-6.9-2.34-16.91-10-21-5.79-3.09-11.79-5.27-19.16-4.74-11.78.85-21.67,8.21-22.89,20.25s6.76,22.73,16.18,29.17c9.9,6.78,23.21,11.23,35.4,7.21,10.91-3.62,15.42-16.15,13.22-26.38"/><path class="cls-14" d="M507.42,118.9c1.17-7.87-5.94-13.28-12.52-15.73-7.75-2.9-18-1.63-23.62,4.79-4.15,4.71-3.86,11.55-1.74,17.08,3.22,8.37,10.49,14.41,18.94,17,6,1.86,13.28,2.67,19.37.71,8.88-2.86,11.78-12.12,9.94-20.61a24.27,24.27,0,0,0-1.8-5.31c-1.12-2.36-4.56-7.13.18-1.32a21.22,21.22,0,0,1,1.37,2,22.7,22.7,0,0,1,2.31,5.12c2.58,7.92.55,17.16-6.62,21.94-5.51,3.66-12.47,4.1-18.85,3.18a35.6,35.6,0,0,1-22.18-12c-5.11-6.05-8.59-14.74-6.49-22.7a17.66,17.66,0,0,1,11.91-12,26.57,26.57,0,0,1,21.46,2.51,19.06,19.06,0,0,1,7.82,7.89,11.71,11.71,0,0,1,1.18,4.92,10.21,10.21,0,0,1-.17,2.07c0,.25-.56.95-.49.37"/></g></svg>