<svg xmlns="http://www.w3.org/2000/svg" viewBox="0 0 100 100" width="256" height="256">
    
    <defs>
        <linearGradient x1="0%" y1="39.9841302%" x2="100%" y2="59.4598628%" id="gradient-2">
            <stop stop-color="#ff00f0" offset="0%"/>
            <stop stop-color="#cd10f3" offset="100%"/>
        </linearGradient>
    </defs>

    <path d="M5.75,9.15625v83.4375h89V9.15625H5.75z M36.8072929,15.9934893c2.8161049,0,5.0989571,2.2828531,5.0989571,5.098958  s-2.2828522,5.098959-5.0989571,5.098959c-2.8159943,0-5.098959-2.2828522-5.098959-5.098959  S33.9912987,15.9934893,36.8072929,15.9934893z M20.0039062,15.9934893c2.8161068,0,5.098959,2.2828531,5.098959,5.098958  s-2.2828522,5.098959-5.098959,5.098959c-2.8159924,0-5.098958-2.2828522-5.098958-5.098959  S17.1879139,15.9934893,20.0039062,15.9934893z M85.4791641,83.3229141H15.020833V35.1145821h70.4583282V83.3229141z" fill="url(#gradient-2)"/>
    
</svg>