<svg xmlns="http://www.w3.org/2000/svg" width="256" height="256" viewBox="-2 -2 40 40" fill="none"><path fill-rule="evenodd" clip-rule="evenodd" d="M18 36C3.48268 36 0 32.5173 0 18 0 3.48269 3.48268 0 18 0c14.5173 0 18 3.48269 18 18 0 14.5173-3.4827 18-18 18zM12.9043 8.90834L7.25865 21.7393c-.25662.6233-.47658 1.4297-.47658 2.1263 0 3.1894 2.23626 5.4257 5.42563 5.4257 1.0452 0 1.9131-.2746 2.7956-.5538l.0007-.0003c.9125-.2888 1.8406-.5824 2.996-.5824 1.1689 0 2.0748.291 2.9697.5786l.0003.0001c.8732.2806 1.736.5578 2.8222.5578 3.1894 0 5.4257-2.2363 5.4257-5.4257 0-.6966-.22-1.503-.4765-2.1263L23.0958 8.90834C22.1425 6.74541 20.3096 5.5723 18 5.5723c-2.3096 0-4.1426 1.17311-5.0957 3.33604zm-.4766 14.84736L18 11.1447l5.499 12.611c-1.5764-.7699-3.556-1.1365-5.499-1.1365-2.0163 0-3.9226.3666-5.5723 1.1365zm53.38" fill="#2C2B2A"/></svg>