<svg xmlns="http://www.w3.org/2000/svg" width="256" height="256" viewBox="0 0 172 172" fill="none">
<g clip-path="url(#clip0_15_21)">
<path d="M172.05 89.79C172.066 82.8086 169.924 75.9929 165.915 70.2767C161.907 64.5606 156.229 60.2236 149.66 57.86C150.258 54.813 150.559 51.7152 150.56 48.61C150.566 38.3319 147.312 28.3167 141.267 20.0043C135.222 11.6919 126.697 5.51043 116.917 2.3487C107.138 -0.813038 96.6072 -0.792202 86.8401 2.40821C77.073 5.60863 68.5722 11.8238 62.5601 20.16C58.1246 16.7229 52.6898 14.8248 47.0788 14.7535C41.4678 14.6822 35.9865 16.4414 31.465 19.7646C26.9435 23.0879 23.6283 27.7942 22.0214 33.1707C20.4146 38.5471 20.6037 44.3007 22.5601 49.56C15.9754 51.9601 10.2837 56.3191 6.25042 62.0507C2.21719 67.7824 0.0359539 74.6117 0.000115291 81.62C-0.018156 88.6256 2.13571 95.4646 6.16517 101.195C10.1946 106.926 15.9015 111.267 22.5001 113.62C21.916 116.666 21.618 119.759 21.6101 122.86C21.6003 133.126 24.8511 143.13 30.8937 151.43C36.9364 159.729 45.4586 165.895 55.2317 169.039C65.0048 172.182 75.5237 172.141 85.2717 168.92C95.0197 165.7 103.493 159.467 109.47 151.12C113.893 154.566 119.318 156.475 124.924 156.559C130.53 156.643 136.01 154.896 140.533 151.584C145.057 148.271 148.377 143.574 149.989 138.205C151.602 132.835 151.42 127.087 149.47 121.83C156.058 119.434 161.754 115.076 165.789 109.344C169.825 103.612 172.006 96.7803 172.04 89.77" fill="white"/>
<path d="M67.64 73.81L105.29 91L143.29 57.72C143.837 54.974 144.109 52.1801 144.1 49.38C144.098 40.315 141.195 31.4886 135.815 24.1923C130.436 16.896 122.863 11.5129 114.203 8.83068C105.544 6.14846 96.254 6.30793 87.6921 9.28575C79.1301 12.2636 71.7459 17.9034 66.62 25.38L60.29 58.12L67.64 73.81Z" fill="#FEC514"/>
<path d="M28.6701 113.68C28.115 116.469 27.8369 119.306 27.8401 122.15C27.8403 131.253 30.7583 140.116 36.1659 147.438C41.5735 154.761 49.1858 160.157 57.8857 162.835C66.5856 165.513 75.9149 165.332 84.5043 162.318C93.0937 159.305 100.491 153.617 105.61 146.09L111.88 113.42L103.51 97.4201L65.7201 80.2001L28.6701 113.68Z" fill="#00BFB3"/>
<path d="M28.4401 48.53L54.2401 54.62L59.8901 25.28C56.3809 22.6191 52.1042 21.1665 47.7004 21.1397C43.2965 21.1128 39.0024 22.5133 35.4611 25.1313C31.9198 27.7492 29.3218 31.4439 28.0561 35.662C26.7904 39.8802 26.9251 44.3948 28.4401 48.53Z" fill="#F04E98"/>
<path d="M26.2002 54.67C20.5394 56.5802 15.6146 60.2071 12.1108 65.0461C8.60695 69.8852 6.69825 75.6959 6.65015 81.67C6.64608 87.4439 8.39949 93.0822 11.6773 97.8354C14.955 102.589 19.6019 106.232 25.0002 108.28L61.2002 75.56L54.5502 61.36L26.2002 54.67Z" fill="#1BA9F5"/>
<path d="M112.23 146.09C115.734 148.737 120 150.181 124.391 150.204C128.782 150.227 133.063 148.83 136.594 146.22C140.126 143.61 142.718 139.927 143.985 135.722C145.251 131.518 145.123 127.016 143.62 122.89L117.84 116.89L112.23 146.09Z" fill="#93C90E"/>
<path d="M117.47 110.1L145.85 116.73C151.514 114.825 156.442 111.2 159.947 106.359C163.452 101.519 165.358 95.7057 165.4 89.7301C165.395 83.9684 163.638 78.3445 160.363 73.6044C157.087 68.8644 152.448 65.2323 147.06 63.1901L109.94 95.6901L117.47 110.1Z" fill="#0077CC"/>

</g>
<defs>
<clipPath id="clip0_15_21">
<rect width="500" height="171.38" fill="white"/>
</clipPath>
</defs>
</svg>