<svg xmlns="http://www.w3.org/2000/svg" width="256" height="256" viewBox="-1.5 -8 55 55"><path d="M50.782 31.593v-2.42c0-.45-.757-.88-2.116-1.266l.033-3.014c0-4.641-1.44-9.17-4.126-12.975a22.825 22.825 0 0 0-10.886-8.29l-.097-.604a1.722 1.722 0 0 0-.408-.872 1.747 1.747 0 0 0-.815-.521 23.147 23.147 0 0 0-12.925 0c-.317.093-.6.273-.818.52-.217.246-.36.548-.41.872l-.093.563A22.83 22.83 0 0 0 7.159 11.87 22.498 22.498 0 0 0 3 24.892v3.027c-1.34.385-2.087.81-2.087 1.256v2.421a.59.59 0 0 0 .087.408 5.852 5.852 0 0 1 2.247-1.015c2.072-.5 4.179-.85 6.303-1.046A4.25 4.25 0 0 1 12.857 31a8.95 8.95 0 0 0 6.009 2.313H32.83a8.943 8.943 0 0 0 6.008-2.314 4.253 4.253 0 0 1 3.308-1.069c2.123.195 4.23.543 6.302 1.042.77.146 1.498.462 2.13.924.035.035.078.066.108.1a.6.6 0 0 0 .096-.403Z" fill="#FFF100"/><path d="M12.89 26.498a53.052 53.052 0 0 1-.03-1.673c.007-8.416 1.992-15.964 5.262-21.235A22.83 22.83 0 0 0 7.16 11.872 22.498 22.498 0 0 0 3 24.892v3.027a55.919 55.919 0 0 1 9.89-1.42Z" fill="url(#a)"/><path d="M48.697 24.892a22.425 22.425 0 0 0-5.215-14.396 46.55 46.55 0 0 1 2.162 14.325c0 .82-.022 1.63-.06 2.435a28.49 28.49 0 0 1 3.074.648l.038-3.012Z" fill="url(#b)"/><path d="M48.448 30.98c-2.073-.5-4.18-.85-6.303-1.046a4.252 4.252 0 0 0-3.308 1.063 8.943 8.943 0 0 1-6.009 2.313H18.87a8.949 8.949 0 0 1-6.006-2.312 4.25 4.25 0 0 0-3.308-1.071c-2.124.196-4.23.545-6.303 1.045a5.929 5.929 0 0 0-2.246 1.015c1.06 1.607 11.782 3.294 24.846 3.294 13.065 0 23.782-1.693 24.844-3.293-.037-.033-.078-.064-.109-.099a5.462 5.462 0 0 0-2.14-.909Z" fill="url(#c)"/><path d="M25.846 7.818 20.5 16.841l5.346 3.288V7.818Z" fill="#0A0A0A"/><path d="M25.848 7.822v12.305l5.345-3.284-5.345-9.021ZM25.848 21.915v4.29c.1-.142 5.345-7.58 5.345-7.583l-5.345 3.293Z" fill="#4B4D4D"/><path d="m25.848 21.916-5.346-3.288 5.346 7.58v-4.294.002Z" fill="#0A0A0A"/><defs><linearGradient id="a" x1="10.561" y1="27.919" x2="10.561" y2="3.59" gradientUnits="userSpaceOnUse"><stop stop-color="#EDCF00"/><stop offset=".33" stop-color="#F0D500"/><stop offset=".77" stop-color="#F9E500"/><stop offset="1" stop-color="#FFF100"/></linearGradient><linearGradient id="b" x1="46.089" y1="28.096" x2="46.089" y2="10.496" gradientUnits="userSpaceOnUse"><stop stop-color="#EDCF00"/><stop offset=".59" stop-color="#F7E100"/><stop offset="1" stop-color="#FFF100"/></linearGradient><radialGradient id="c" cx="0" cy="0" r="1" gradientUnits="userSpaceOnUse" gradientTransform="matrix(18.5398 0 0 18.4136 3.701 44.539)"><stop stop-color="#FFF100"/><stop offset=".23" stop-color="#F9E500"/><stop offset=".67" stop-color="#F0D500"/><stop offset="1" stop-color="#EDCF00"/></radialGradient></defs></svg>