<svg xmlns="http://www.w3.org/2000/svg" data-v-b8a7b07a="" data-v-efe8dd0c="" version="1.2" x="0" y="0" viewBox="-4 -5 150 150" xml:space="preserve" class="app-logo menu__logo menu__logo_active" width="256" height="256"><defs data-v-b8a7b07a=""><radialGradient data-v-b8a7b07a="" id="gradient-1_2" cx="63.5" cy="71.1" r="65" gradientTransform="matrix(.96 .21 -.14 .63 43 13.8)" gradientUnits="userSpaceOnUse"><stop data-v-b8a7b07a="" offset=".2" stop-opacity="0" class="app-logo__gradient"/> <stop data-v-b8a7b07a="" offset="1" class="app-logo__gradient"/></radialGradient> <radialGradient data-v-b8a7b07a="" id="gradient-2_2" cx="40" cy="162.1" r="35" gradientTransform="matrix(.98 0 0 .6 31.7 16.5)" gradientUnits="userSpaceOnUse"><stop data-v-b8a7b07a="" offset="0" stop-opacity="0" class="app-logo__gradient"/> <stop data-v-b8a7b07a="" offset="1" class="app-logo__gradient"/></radialGradient> <radialGradient data-v-b8a7b07a="" id="gradient-3_2" cx="40.5" cy="29.8" r="60.3" gradientTransform="matrix(.98 0 0 .75 31.6 9.5)" gradientUnits="userSpaceOnUse"><stop data-v-b8a7b07a="" offset=".2" stop-opacity="0" class="app-logo__gradient"/> <stop data-v-b8a7b07a="" offset="1" class="app-logo__gradient"/></radialGradient> <radialGradient data-v-b8a7b07a="" id="gradient-4_2" cx="3.1" cy="-.4" r="40.7" gradientTransform="matrix(.4 .89 -1.26 .57 33 -.4)" gradientUnits="userSpaceOnUse"><stop data-v-b8a7b07a="" offset=".4" stop-opacity="0" class="app-logo__gradient"/> <stop data-v-b8a7b07a="" offset="1" class="app-logo__gradient"/></radialGradient> <radialGradient data-v-b8a7b07a="" id="gradient-5_2" cx="-412.4" cy="-1203.4" r="1068.9" gradientTransform="matrix(.98 0 0 .98 31.7 2.6)" gradientUnits="userSpaceOnUse"><stop data-v-b8a7b07a="" offset="0" stop-opacity="0" class="app-logo__gradient"/> <stop data-v-b8a7b07a="" offset=".4" class="app-logo__gradient"/></radialGradient> <style data-v-b8a7b07a="">
      .cls-1{fill:purple;}
    </style></defs>  <path data-v-b8a7b07a="" fill="#6929c4" d="M131.1 103.1C131 90.1 100.6 83 72 82.6c-30.4 0-61.8 7.6-61.9 20.5.2 13 30.6 20.3 59.2 20.6 30.3 0 61.7-7.7 61.8-20.5zM69.3 119c-32-.4-54.3-8.6-54.4-15.8.1-7.5 24.5-16 57.1-16 32 .5 54.3 8.7 54.4 16 0 7.4-24.5 15.8-57.1 15.8z"/> <path data-v-b8a7b07a="" d="M70.8 140.3a70 70 0 1161.5-103 70 70 0 01-61.5 103zM70.5 5.2a65.2 65.2 0 1057.6 34.3A65.3 65.3 0 0070.7 5.2z" class="app-logo__solid" fill="#6929c4"/> <path data-v-b8a7b07a="" fill="#6929c4" d="M88.7 131c0-5.4-7.8-9.5-18-9.5s-18 4-18 9.4v.1c0 5.3 7.8 9.4 18 9.4s18-4 18-9.4zm-18 5c-8.1 0-13.3-3-13.3-5s5.2-5 13.3-5 13.2 2.9 13.3 5-5.3 4.9-13.3 4.9z"/> <path data-v-b8a7b07a="" fill="#6929c4" d="M140.6 70.4c-.2-13.8-35.3-21.7-68.3-22-35 0-71.4 8.2-71.6 22C.9 84.5 36 92.3 69 92.7c35 0 71.4-8.3 71.6-22.1zM69.1 87.8c-37.4-.4-63.5-9.5-63.7-17.4C5.5 62.2 34.1 53 72.2 53c37.5.4 63.6 9.5 63.7 17.4-.1 8.2-28.7 17.4-66.8 17.4z"/> <path data-v-b8a7b07a="" fill="#6929c4" d="M72 16.9c-30.4 0-61.8 7.7-61.8 20.6s30.4 20.3 59 20.6c30.4 0 61.8-7.7 61.8-20.6s-30.3-20.3-59-20.6zm-2.7 36.4C37.3 53 15 44.7 15 37.5c0-7.5 24.4-15.9 57-15.9 32 .4 54.3 8.7 54.3 15.9 0 7.5-24.4 15.8-57 15.8z"/> <path data-v-b8a7b07a="" d="M70.4.4c-5 0-16.9.7-16.9 7.9s11.8 7.8 17 7.8 16.8-.7 16.8-7.8-11.8-8-16.9-8zm0 4.8c7.2 0 12.1 1.6 12.1 3s-5 3.2-12 3.2-12.2-1.7-12.2-3.1 5-3.1 12.1-3.1z" class="app-logo__solid" fill="#6929c4"/> <path data-v-b8a7b07a="" fill="#6929c4" d="M100 112.8a6.1 6.1 0 00-.9 0L72.8 67.6 48.8 26a6 6 0 10-4.5 2.2 6.6 6.6 0 00.8 0l24 41.3 10.8 18.7L95.3 115a6 6 0 104.7-2.2z"/></svg>