<svg xmlns="http://www.w3.org/2000/svg" width="256" height="256" viewBox="0 0 112 112" fill="none"><path clip-rule="evenodd" d="m33.957 19.88 18.64 12.724c.422.28.913.433 1.417.442a2.551 2.551 0 0 0 1.417-.442l18.654-12.767a2.546 2.546 0 0 0 1.052-2.277 2.54 2.54 0 0 0-1.406-2.074l-18.64-9.229a2.562 2.562 0 0 0-2.238 0l-18.584 9.23a2.54 2.54 0 0 0-1.42 2.105 2.545 2.545 0 0 0 1.108 2.288zm26.389 16.718a2.573 2.573 0 0 0 1.105 2.11l14.943 10.214c.957.66 2.237.577 3.102-.2l12.536-11.211a2.547 2.547 0 0 0-.113-3.895l-11.97-9.571a2.535 2.535 0 0 0-3.002-.114L61.45 34.529a2.572 2.572 0 0 0-1.105 2.069zM23.178 50.49c.604.543.915 1.343.836 2.154a2.497 2.497 0 0 1-1.26 1.94l-8.924 5.35a2.521 2.521 0 0 1-2.87-.197 2.564 2.564 0 0 1-.841-2.77l3.3-10.385A2.53 2.53 0 0 1 15.16 44.9a2.452 2.452 0 0 1 2.351.556zm48.4 1.084-16.133-11.04a2.535 2.535 0 0 0-2.833 0L36.48 51.575a2.586 2.586 0 0 0-1.105 1.94c-.042.788.27 1.553.85 2.083l16.119 14.421a2.525 2.525 0 0 0 1.685.642c.621 0 1.22-.228 1.686-.642l16.12-14.421c.58-.528.889-1.296.835-2.083a2.529 2.529 0 0 0-1.09-1.94zm-43.031-2.852L16.025 37.51a2.605 2.605 0 0 1-.85-2.012c.014-.752.362-1.46.95-1.925l11.968-9.629a2.563 2.563 0 0 1 3.017-.114L46.592 34.43c.719.472 1.152 1.277 1.152 2.14s-.433 1.669-1.152 2.14l-14.93 10.213a2.536 2.536 0 0 1-3.115-.2zm64.292 16.104-12.748-7.631a2.507 2.507 0 0 0-2.974.285L61.536 71.389a2.563 2.563 0 0 0 .736 4.279l21.615 8.758c.297.123.614.186.935.186a2.535 2.535 0 0 0 2.323-1.512l6.7-15.006a2.563 2.563 0 0 0-1.006-3.267zm1.77-18.244 3.301 10.384h-.028a2.568 2.568 0 0 1-.373 2.281 2.53 2.53 0 0 1-3.338.686l-8.938-5.349a2.484 2.484 0 0 1-1.218-1.94 2.534 2.534 0 0 1 .835-2.154l5.666-5.05a2.522 2.522 0 0 1 2.352-.556c.826.236 1.48.874 1.742 1.698zM47.33 73.728a2.55 2.55 0 0 0-.808-2.34l-15.58-13.907a2.507 2.507 0 0 0-2.975-.286l-12.748 7.632a2.591 2.591 0 0 0-1.02 3.252l6.714 15.006a2.529 2.529 0 0 0 3.258 1.327l21.6-8.758a2.55 2.55 0 0 0 1.559-1.926zm7.649 4.28 17.337 7.017a2.552 2.552 0 0 1 1.53 2.083 2.532 2.532 0 0 1-1.077 2.382l-17.351 12.054c-.416.292-.91.451-1.417.456-.506-.008-1-.167-1.416-.456L35.246 89.49a2.546 2.546 0 0 1-1.09-2.382 2.594 2.594 0 0 1 1.586-2.083l17.338-7.018a2.561 2.561 0 0 1 1.898 0z" fill="#bf4722" fill-rule="evenodd"/></svg>