<svg xmlns="http://www.w3.org/2000/svg" width="256" height="256" viewBox="-0.5 -1.5 32 32" fill="none"><path fill-rule="evenodd" clip-rule="evenodd" d="M23.9966 16.4635C23.7535 17.624 22.6731 20.603 19.2272 22.216L17.8436 20.6738L15.5085 23C14.18 22.9824 12.8735 22.6605 11.6912 22.0596C10.509 21.4586 9.48296 20.5948 8.69338 19.5358C8.94137 19.6124 9.1975 19.6602 9.45662 19.6782C9.83911 19.6851 10.253 19.5461 10.253 18.9097V12.6323C10.2583 12.471 10.2256 12.3106 10.1573 12.164C10.0891 12.0174 9.9872 11.8886 9.85982 11.788C9.73244 11.6873 9.58309 11.6176 9.42369 11.5843C9.26428 11.551 9.09923 11.555 8.94169 11.5961C7.86043 11.8431 6.99699 14.5164 6.99699 14.5164C6.98486 13.2821 7.24413 12.0601 7.75676 10.9352C8.26939 9.81023 9.02309 8.80945 9.96545 8.00239C11.2058 6.93914 12.7241 6.245 14.3454 6C13.1648 6.6666 12.5018 7.75371 12.5018 8.66553C12.5018 10.1334 13.3939 9.95556 13.6579 9.73969V18.2121C13.7029 18.3183 13.7615 18.4185 13.8322 18.51C13.9501 18.6716 14.1054 18.803 14.285 18.8931C14.4646 18.9833 14.6634 19.0295 14.8647 19.028C15.7577 19.028 16.9165 18.0178 16.9165 18.0178V11.1601C16.9165 10.4624 16.3859 9.61967 15.8544 9.3304C15.8544 9.3304 16.8381 9.15771 17.597 9.73364C17.7396 9.56105 17.8911 9.3959 18.051 9.23888C19.8223 7.51625 21.4908 7.0258 22.8805 6.78058C22.8805 6.78058 20.3538 8.74843 20.3538 11.3889C20.3538 13.3524 20.4052 18.1413 20.4052 18.1413C21.3427 19.0384 22.7367 17.7423 23.9966 16.4635Z" fill="#000"/><path fill-rule="evenodd" clip-rule="evenodd" d="M29.9966 14.5C29.9966 22.5081 23.5047 29 15.4966 29C7.48845 29 0.996582 22.5081 0.996582 14.5C0.996582 6.49187 7.48845 0 15.4966 0C23.5047 0 29.9966 6.49187 29.9966 14.5ZM15.4966 28C22.9524 28 28.9966 21.9558 28.9966 14.5C28.9966 7.04416 22.9524 1 15.4966 1C8.04074 1 1.99658 7.04416 1.99658 14.5C1.99658 21.9558 8.04074 28 15.4966 28Z" fill="#000"/></svg>